<svg width="14" height="15" viewBox="0 0 14 15" fill="none" xmlns="http://www.w3.org/2000/svg">
<path opacity="0.9" d="M6.8125 0.71875L6.1875 1.3125C6.03125 1.46875 6.03125 1.71875 6.1875 1.84375L11.0312 6.6875H0.375C0.15625 6.6875 0 6.875 0 7.0625V7.9375C0 8.15625 0.15625 8.3125 0.375 8.3125H11.0312L6.1875 13.1875C6.03125 13.3125 6.03125 13.5625 6.1875 13.7188L6.8125 14.3125C6.9375 14.4688 7.1875 14.4688 7.34375 14.3125L13.875 7.78125C14.0312 7.625 14.0312 7.40625 13.875 7.25L7.34375 0.71875C7.1875 0.5625 6.9375 0.5625 6.8125 0.71875Z" fill="#426FE4"/>
</svg>
