<svg width="687" height="563" viewBox="0 0 687 563" fill="none" xmlns="http://www.w3.org/2000/svg">
<path d="M3.63881 406.521C7.38278 429.562 30.2665 536.703 113.858 559.499C177.051 576.749 354.592 517.685 455.714 547.427C659.253 607.261 696.535 446.62 685.163 403.232C677.238 372.983 667.458 342.646 667.195 311.068C666.933 278.037 678.515 245.548 679.774 212.272C682.976 128.068 623.79 45.4034 543.085 21.2426C508.532 10.9204 480.277 0.370832 444.22 0.0734139C371.037 -0.556412 197.363 0.0734126 111.811 124.517C96.5207 146.753 74.3193 163.391 57.2615 184.315C34.5178 212.307 19.367 246.125 10.217 281.098C-0.630006 322.002 -2.86939 364.708 3.63881 406.521Z" fill="#ECF3FD"/>
<path d="M435.472 433.953H302.176L325.76 367.437H415.58L435.472 433.953Z" fill="#68E1FD"/>
<path d="M435.472 433.953H302.176L325.76 367.437H415.58L435.472 433.953Z" fill="#414141"/>
<path d="M201.737 125.951H547.144C560.37 125.951 571.077 136.658 571.077 149.885V368.452C571.077 381.678 560.37 392.385 547.144 392.385H201.737C188.51 392.385 177.803 381.678 177.803 368.452V149.885C177.803 136.676 188.528 125.951 201.737 125.951Z" fill="#555555"/>
<path d="M571.077 149.867V341.579H177.891V149.867C177.891 136.658 188.598 125.951 201.807 125.951H547.161C560.37 125.951 571.077 136.658 571.077 149.867Z" fill="#473F47"/>
<path d="M565.164 154.433V335.176H183.769V154.433C183.839 141.679 194.231 131.41 206.985 131.479H541.948C554.702 131.41 565.094 141.697 565.164 154.433Z" fill="white"/>
<path opacity="0.18" d="M565.395 153.954V334.697H184V153.954C184.07 141.2 194.462 130.93 207.216 131H542.178C554.932 130.93 565.325 141.218 565.395 153.954Z" fill="#FDFFFF"/>
<path d="M208.5 190.513V84.938H359.195V190.513H208.5Z" fill="#F9F6F3" stroke="black" stroke-width="3"/>
<path d="M504.56 145.318C504.333 142.047 504.56 138.688 504.21 135.433C503.126 125.934 498.035 117.361 490.214 111.867C482.394 106.444 472.859 104.1 463.412 105.237C448.103 106.986 435.245 117.483 427.879 130.727C419.499 145.791 427.337 158.125 434.107 171.788C439.181 182.006 436.189 194.76 429.611 204.084C424.45 211.38 416.822 218.378 417.469 227.301C417.872 232.724 421.336 237.36 424.677 241.647C426.917 244.516 429.419 247.56 432.953 248.382C434.737 248.697 436.557 248.697 438.341 248.382C442.33 247.822 446.284 247.018 450.185 245.985C453.964 244.971 457.848 243.711 461.732 244.236C468.31 245.076 473.174 250.622 476.971 256.028C480.767 261.434 484.511 267.452 490.547 270.146C495.131 272.211 500.379 272.018 505.383 271.598C519.991 270.391 535.474 266.997 545.517 256.325C547.738 253.876 549.768 251.269 551.622 248.522C552.76 247.088 553.669 245.478 554.334 243.781C556.084 238.69 553.284 233.284 550.135 228.823C546.986 224.361 543.137 220.075 542.682 214.722C542.262 210.523 543.942 206.446 544.432 202.282C545.499 194.34 542.402 186.274 537.434 179.959C532.29 173.818 526.114 168.604 519.204 164.563C513.955 161.274 508.357 157.862 505.908 152.316C505.05 150.077 504.595 147.715 504.56 145.318Z" fill="#4C2F02"/>
<rect x="225" y="132" width="53" height="2" fill="#C4C4C4"/>
<rect x="225" y="138" width="123" height="2" fill="#C4C4C4"/>
<rect x="225" y="144" width="123" height="2" fill="#C4C4C4"/>
<path d="M495.97 161.116C497.125 164.615 497.72 168.377 499.732 171.526C502.181 175.515 506.345 178.069 510.474 180.274C512.696 181.271 514.725 182.67 516.422 184.42C517.612 185.942 518.434 187.709 518.854 189.581C519.449 192.048 519.606 194.62 519.291 197.139C518.802 199.238 518.662 201.408 518.889 203.56C519.501 206.236 521.688 208.196 523.595 210.173C527.392 213.759 529.963 218.448 530.926 223.574C531.625 228.718 529.544 234.439 524.995 236.958C523.35 237.798 521.583 238.393 519.746 238.707C516.807 239.285 513.833 239.652 510.841 239.792C508.707 239.95 506.572 239.775 504.49 239.267C501.954 238.358 499.592 237.045 497.492 235.366L469.64 215.561C466.403 213.567 463.604 210.943 461.4 207.846C459.878 205.047 458.863 201.985 458.408 198.818C456.886 191.138 455.714 182.915 458.688 175.672C460.997 170.004 465.581 165.613 470.025 161.396L481.309 150.724C484.581 147.628 487.153 146.263 490.057 150.059C492.629 153.401 494.623 157.127 495.97 161.116Z" fill="url(#paint0_linear)"/>
<path d="M515.372 262.466C524.627 272.841 528.476 285.612 535.492 297.456C536.314 299.153 537.574 300.588 539.148 301.638C541.72 303.037 544.922 302.057 547.511 300.693C568.348 289.566 570.255 257.742 590.689 245.898C595.43 243.169 600.819 241.734 605.525 238.9C607.275 237.85 609.164 235.978 608.464 234.054C607.817 232.864 606.68 232.007 605.35 231.709C599.962 229.855 594.258 229.138 588.59 229.628C586.053 229.855 582.519 229.628 582.239 227.056C582.309 226.321 582.309 225.569 582.239 224.834C581.679 222.979 578.582 223.662 577.813 225.446C577.043 227.231 577.62 229.26 577.55 231.202C577.2 234.246 576.028 237.133 574.156 239.547C569.747 246.353 564.919 252.861 559.705 259.072C544.939 276.567 541.213 248.662 529.544 242.836C528.441 242.381 527.252 242.137 526.044 242.119C515.652 241.402 505.243 241.192 494.833 241.489C498.525 244.446 512.048 258.757 515.372 262.466Z" fill="#A47F53"/>
<path d="M485.596 197.874C485.596 197.874 515.827 211.502 517.612 215.071C519.396 218.64 517.612 320.462 517.612 320.462H411.031L417.154 213.164L448.331 200.393L485.596 197.874Z" fill="#73E5E2"/>
<path d="M411.014 320.48H517.612C517.612 320.48 519.361 218.658 517.612 215.054C515.862 211.45 485.596 197.874 485.596 197.874L448.348 200.375L417.172 213.147L414.215 264.67L411.014 320.48Z" fill="url(#paint1_linear)"/>
<path d="M517.612 215.019L542.997 247.35C537.889 262.448 517.612 281.606 517.612 281.606V215.019Z" fill="#73E5E2"/>
<path d="M517.612 244.393L533.48 263.901L517.612 281.658V244.393Z" fill="url(#paint2_linear)"/>
<path d="M492.016 157.827C493.469 157.057 495.271 157.285 496.478 158.405C496.828 158.859 497.055 159.367 497.177 159.927C497.72 163.058 497.073 166.277 495.34 168.954C494.938 169.724 494.413 170.424 493.748 170.984C492.419 171.823 490.844 172.243 489.27 172.173C488.92 172.243 488.552 172.243 488.202 172.173C487.923 172.051 487.66 171.858 487.468 171.613C486.453 170.336 485.998 168.692 486.226 167.082C486.558 163.478 488.622 159.314 492.016 157.827Z" fill="#9E7B50"/>
<path d="M439.321 171.491C440.773 172.278 442.575 172.051 443.782 170.931C444.132 170.476 444.359 169.969 444.482 169.409C445.042 166.278 444.377 163.041 442.645 160.382C442.243 159.612 441.7 158.912 441.053 158.335C439.723 157.495 438.149 157.075 436.574 157.145C436.207 157.093 435.857 157.128 435.507 157.25C435.227 157.373 434.965 157.565 434.772 157.81C433.757 159.087 433.303 160.732 433.53 162.341C433.862 165.858 435.944 170.022 439.321 171.491Z" fill="#9E7B50"/>
<path d="M484.826 183.388C483.794 188.881 485.386 193.062 485.613 198.101C485.928 205.572 478.02 217.241 474.871 224.064C473.856 226.268 472.649 228.665 470.427 229.662C468.853 230.24 467.173 230.415 465.511 230.17C463.044 230.24 460.595 229.68 458.408 228.543C455.539 226.793 454.297 223.294 453.3 220.04C451.673 214.791 447.544 206.481 448.541 201.075C448.856 199.326 450.43 197.576 450.868 195.687C451.288 193.237 451.41 190.753 451.27 188.286C451.148 175.13 484.826 183.388 484.826 183.388Z" fill="#A47F53"/>
<path opacity="0.2" d="M484.826 183.388C484.826 183.388 480.557 206.272 466.963 204.942C459.353 204.487 452.932 199.064 451.218 191.628L484.826 183.388Z" fill="black"/>
<path d="M486.015 179.434C485.193 183.09 483.759 186.589 481.782 189.773C476.218 197.909 463.587 200.41 455.224 195.022C450.728 191.785 447.229 187.324 445.182 182.181C440.283 171.403 438.656 159.419 440.476 147.715C440.965 143.149 442.697 138.81 445.514 135.171C450.465 129.45 458.916 127.963 466.508 128.365C473.384 128.733 480.505 130.447 485.666 134.839C491.334 139.842 493.801 147.575 492.086 154.941C490.144 163.093 488.237 171.281 486.015 179.434Z" fill="#A47F53"/>
<path d="M326.6 210.82C325.462 209.736 324.063 208.948 322.541 208.581C321.001 208.388 319.444 208.266 317.887 208.231C314.685 207.864 311.326 206.167 308.44 207.601C306.463 208.756 305.273 210.89 305.343 213.182C305.43 215.421 306.078 217.608 307.215 219.55C312.044 228.735 319.147 231.797 327.492 236.713C331.883 239.302 334.945 245.461 337.989 249.747L349.028 265.038C353.542 271.284 358.126 277.617 364.162 282.428C365.141 283.285 366.261 283.95 367.486 284.405C369.708 284.93 372.034 284.702 374.099 283.74C382.846 280.363 390.632 273.96 398.19 268.432C401.689 265.843 405.31 263.183 408.827 260.576C410.349 259.439 413.183 257.987 414.163 256.273C414.705 255.188 415.02 253.998 415.09 252.774C416.42 242.451 414.583 231.937 414.845 221.527C403.333 234.684 390.037 248.592 374.606 257.077C374.151 257.392 373.609 257.567 373.067 257.62C372.507 257.567 371.964 257.392 371.492 257.095C358.703 250.272 347.436 240.912 338.391 229.593C335.05 224.939 332.128 219.988 329.644 214.827C328.856 213.34 327.824 211.992 326.6 210.82Z" fill="#A47F53"/>
<path d="M417.154 213.165L392.084 244.761C397.175 259.859 414.163 279.016 414.163 279.016L417.154 213.165Z" fill="#73E5E2"/>
<path opacity="0.1" d="M494.798 165.805C494.361 166.907 493.643 167.887 492.716 168.639C491.876 169.322 490.704 169.392 489.794 168.797C489.637 168.692 489.515 168.534 489.445 168.342C489.375 168.045 489.427 167.73 489.567 167.45L489.777 166.89C489.83 166.732 489.899 166.575 490.004 166.435C490.389 165.928 491.177 166.015 491.754 165.7C492.331 165.385 492.559 164.581 492.874 163.951C493.101 163.426 493.608 163.059 494.186 163.041C494.728 163.163 495.148 163.618 495.183 164.178C495.218 164.756 495.078 165.315 494.798 165.805Z" fill="black"/>
<path opacity="0.1" d="M435.839 164.685C436.277 165.788 436.994 166.767 437.921 167.52C438.761 168.202 439.951 168.272 440.861 167.695C441.018 167.572 441.14 167.415 441.21 167.222C441.263 166.925 441.228 166.61 441.088 166.348L440.878 165.788C440.826 165.63 440.756 165.473 440.651 165.333C440.266 164.825 439.478 164.895 438.901 164.581C438.324 164.266 438.096 163.461 437.781 162.831C437.554 162.306 437.047 161.956 436.469 161.921C435.909 162.026 435.507 162.481 435.472 163.041C435.437 163.618 435.559 164.196 435.839 164.685Z" fill="black"/>
<path d="M485.596 197.874L492.699 201.163L489.2 234.019L470.375 241.262C470.375 241.262 478.265 217.188 485.596 197.874Z" fill="url(#paint3_linear)"/>
<path d="M483.181 236.346L485.578 248.942L462.764 274.433L470.375 241.349L483.181 236.346Z" fill="url(#paint4_linear)"/>
<path d="M448.086 200.586L440.983 203.857L436.924 234.019L455.679 241.262C455.679 241.262 448.331 210.908 448.086 200.586Z" fill="url(#paint5_linear)"/>
<path d="M442.89 236.346L440.476 248.942L463.289 274.433L455.679 241.349L442.89 236.346Z" fill="url(#paint6_linear)"/>
<path d="M433.67 320.078L504.035 307.533L517.612 244.393V314.672V320.462L433.67 320.078Z" fill="url(#paint7_linear)"/>
<path d="M565.164 314.409H183.717V335.193H565.164V314.409Z" fill="white"/>
<path d="M472.002 439.849C464.112 447.74 464.129 460.546 472.019 468.419C474.539 470.921 477.653 472.723 481.099 473.65V478.269H237.917C227.507 478.269 218.269 471.586 215.015 461.701C214.193 459.252 213.773 456.68 213.773 454.09C213.756 440.759 224.55 429.965 237.882 429.947C237.899 429.947 237.899 429.947 237.917 429.947H481.099V434.566C477.653 435.493 474.521 437.313 472.002 439.849Z" fill="#7A98C5"/>
<path d="M481.099 473.65V478.269H237.917C227.507 478.269 218.269 471.586 215.015 461.701C224.253 463.328 282.739 472.653 315.298 454.091L467.803 462.226C470.27 467.859 475.169 472.076 481.099 473.65Z" fill="url(#paint8_linear)"/>
<path d="M472.002 439.849C464.112 447.74 464.129 460.546 472.019 468.419C474.539 470.921 477.653 472.723 481.099 473.65V474.332H335.505C324.343 474.665 315.035 465.882 314.72 454.72C314.388 443.558 323.17 434.251 334.332 433.936C334.735 433.918 335.12 433.918 335.522 433.936H481.117V434.601C477.67 435.511 474.521 437.33 472.002 439.849Z" fill="white"/>
<path d="M619.923 490.236C612.033 498.126 612.051 510.932 619.941 518.805C622.46 521.307 625.574 523.109 629.021 524.036V528.655H385.838C375.446 528.655 366.209 521.989 362.937 512.122C362.115 509.673 361.695 507.101 361.695 504.512C361.677 491.18 372.472 480.386 385.803 480.368C385.821 480.368 385.821 480.368 385.838 480.368H629.021V484.987C625.592 485.897 622.443 487.716 619.923 490.236Z" fill="#7A98C5"/>
<path d="M629.021 524.036V528.655H385.838C375.446 528.655 366.209 521.989 362.937 512.122C372.174 513.749 430.661 523.074 463.219 504.512L615.725 512.647C618.192 518.28 623.09 522.462 629.021 524.036Z" fill="url(#paint9_linear)"/>
<path d="M619.924 490.235C612.033 498.126 612.051 510.932 619.941 518.805C622.46 521.307 625.575 523.109 629.021 524.036V524.683H483.426C472.264 525.016 462.957 516.233 462.642 505.071C462.327 493.909 471.092 484.602 482.254 484.287C482.656 484.27 483.041 484.27 483.444 484.287H629.039V484.952C625.574 485.879 622.443 487.699 619.924 490.235Z" fill="white"/>
<path d="M571.532 349.277C569.065 350.379 566.808 351.919 564.866 353.791C562.907 355.68 561.84 358.322 561.91 361.051C562.172 364.323 564.516 367.017 566.983 369.151C569.8 371.636 573.229 374.225 573.456 377.899C575.468 376.394 577.305 374.645 579.387 373.228C583.026 370.744 587.313 369.414 591.319 367.577C595.325 365.74 599.297 363.151 601.204 359.179C602.236 356.66 602.831 354.001 602.953 351.289C603.356 348.385 603.443 345.463 603.181 342.541C602.901 339.602 601.624 336.855 599.542 334.773C596.375 332.342 592.649 330.767 588.712 330.19C584.181 330.417 580.209 333.269 578.53 337.485C577.708 339.672 578.093 342.156 577.288 344.343C576.273 346.898 573.806 348.122 571.532 349.277Z" fill="#4C2F02"/>
<path d="M480.854 481.558C480.067 481.54 479.28 481.663 478.528 481.908C477.758 482.17 477.215 482.852 477.128 483.657C477.198 484.445 477.653 485.144 478.335 485.512C478.982 485.932 479.735 486.177 480.382 486.614C480.924 487.069 481.519 487.471 482.132 487.821C483.234 488.153 484.423 488.119 485.508 487.699C490.547 486.474 495.76 486.142 500.921 486.736C501.429 486.806 501.919 486.806 502.426 486.736C503.913 486.299 505.085 485.127 505.505 483.64C506.537 480.508 506.835 477.184 506.397 473.912C506.397 473.545 506.31 473.195 506.135 472.863C505.925 472.6 505.663 472.408 505.365 472.268C500.484 469.854 497.807 474.682 494.221 477.044C490.232 479.686 485.631 481.243 480.854 481.558Z" fill="#A47F53"/>
<path d="M598.894 409.758C598.894 409.758 600.119 428.023 583.796 433.534C567.473 439.045 538.221 434.549 538.221 434.549C538.221 434.549 526.447 457.1 514.41 467.789L506.712 475.4C503.388 476.205 499.924 474.7 498.227 471.726C498.227 471.726 520.971 426.396 524.033 423.002C527.514 418.82 532.15 415.776 537.364 414.254L569.94 404.002L598.894 409.758Z" fill="#473F47"/>
<path d="M489.952 349.924L507.43 387.031L539.726 386.804L539.463 384.005L509.756 383.672L493.311 348.559L489.952 349.924Z" fill="#474747"/>
<path d="M575.433 325.938C574.839 326.953 573.596 327.548 573.194 328.65C572.792 329.752 573.649 331.397 574.121 332.744C574.804 334.616 574.594 336.715 575.241 338.605C575.346 339.007 575.591 339.375 575.906 339.655C576.203 339.864 576.553 340.004 576.903 340.057C578.303 340.337 579.737 340.424 581.154 340.302C581.434 340.249 581.714 340.284 581.977 340.407C582.186 340.599 582.309 340.844 582.344 341.124C583.166 344.693 583.096 348.402 582.169 351.936C581.872 353.108 581.539 354.525 582.396 355.435C582.711 355.715 583.096 355.908 583.499 355.995C586.193 356.642 588.747 354.648 590.602 352.496C592.229 350.624 593.628 348.577 594.765 346.373C595.115 345.76 595.36 345.096 595.483 344.396C595.535 343.486 595.413 342.594 595.115 341.736C594.346 338.797 593.873 335.788 593.716 332.744C593.523 328.86 593.803 324.819 592.299 321.215C591.879 319.972 591.039 318.905 589.954 318.188C588.642 317.558 587.19 317.331 585.756 317.506C582.939 317.611 579.825 317.996 577.9 320.077C577.358 320.672 576.186 324.679 575.433 325.938Z" fill="#A47F53"/>
<path d="M595.255 344.641C595.255 344.641 583.621 350.659 580.105 355.383C576.588 360.106 570.85 363.588 573.106 372.528C575.363 381.468 572.617 395.114 572.617 395.114C572.617 395.114 577.673 411.017 590.112 415.041C602.551 419.065 599.122 417.788 599.122 417.788C599.122 417.788 605.717 388.309 608.307 380.103C610.896 371.898 606.522 343.329 595.255 344.641Z" fill="#FBDC8E"/>
<path d="M579.177 319.675C579.405 321.6 580.315 323.367 581.749 324.661C583.131 325.938 584.828 326.831 586.263 328.055C587.802 329.21 588.642 331.064 588.52 332.971C589.657 332.517 590.952 332.936 591.599 333.969C591.896 334.686 591.774 335.508 591.266 336.103C590.759 336.68 590.007 336.978 589.237 336.943C590.707 337.538 591.966 338.57 592.859 339.882C593.856 341.352 594.346 343.101 595.255 344.641C596.375 346.198 597.792 347.527 599.402 348.56C600.119 349.049 600.731 349.697 601.151 350.467C601.484 351.656 601.886 352.828 602.358 353.966C603.391 355.418 604.493 356.817 605.683 358.164C607.275 360.509 608.202 363.238 608.324 366.072C608.237 365.232 608.237 364.393 608.324 363.553C608.622 363.063 608.902 362.556 609.164 362.031C609.619 361.121 609.951 360.159 610.196 359.162C610.529 356.887 610.599 354.595 610.389 352.304C610.389 347.405 615.007 338.185 611.298 333.986C609.829 332.744 608.254 331.624 606.592 330.645C603.321 327.933 602.866 323.157 600.801 319.448C598.947 316.141 595.85 313.727 592.211 312.729C587.383 311.347 578.53 312.869 579.177 319.675Z" fill="#4C2F02"/>
<path d="M314.164 207.771L285 138L317.856 208.506L314.164 207.771Z" fill="#555555"/>
<path d="M590.777 359.966C590.777 359.966 583.429 379.841 582.029 381.293C580.629 382.745 596.183 391.528 596.183 391.528C596.183 391.528 606.347 372.196 605.875 363.833C605.403 355.47 596.497 352.076 590.777 359.966Z" fill="#FBDC8E"/>
<path d="M596.113 388.833C596.113 388.833 595.57 395.237 587.715 395.114L552.812 394.624C550.433 393.4 547.179 393.207 545.412 391.125C544.554 390.181 544.117 388.921 543.312 387.941C542.192 386.717 540.705 385.912 539.061 385.667C537.434 385.439 535.789 385.387 534.162 385.544C533.497 384.775 533.497 383.655 534.162 382.885C534.845 382.168 535.737 381.695 536.699 381.503C540.723 380.488 544.974 381.118 548.526 383.252C549.558 383.987 550.678 384.565 551.867 385.002C552.742 385.177 553.634 385.229 554.527 385.142C564.586 384.67 574.524 382.535 584.583 382.08C586.945 381.853 589.325 382.098 591.581 382.815C593.978 383.97 595.675 386.209 596.113 388.833Z" fill="#A47F53"/>
<path d="M483.881 390.968H478.93V481.558H483.881V390.968Z" fill="#D8D8D8"/>
<path d="M539.726 390.968H534.775V481.558H539.726V390.968Z" fill="#D8D8D8"/>
<path d="M542.455 387.031H473.122V394.904H542.455V387.031Z" fill="#68E1FD"/>
<path d="M542.455 387.031H473.122V394.904H542.455V387.031Z" fill="#D8D8D8"/>
<path d="M555.174 432.449H600.294C601.361 432.449 602.218 433.306 602.218 434.373V442.229C602.218 443.296 601.361 444.153 600.294 444.153H555.174C554.107 444.153 553.25 443.296 553.25 442.229V434.373C553.25 433.306 554.124 432.449 555.174 432.449Z" fill="#473F47"/>
<path d="M562.854 444.153H554.579L550.45 482.45H558.725L562.854 444.153Z" fill="#473F47"/>
<path d="M604.948 482.45L599.472 444.153H591.196L598.072 482.45H604.948Z" fill="#473F47"/>
<path d="M617.142 368.224H609.724L592.964 432.746H600.381L617.142 368.224Z" fill="#473F47"/>
<path d="M227.507 444.153H182.387C181.32 444.153 180.462 443.296 180.462 442.229V434.373C180.462 433.306 181.32 432.449 182.387 432.449H227.507C228.574 432.449 229.431 433.306 229.431 434.373V442.229C229.431 443.296 228.574 444.153 227.507 444.153Z" fill="#473F47"/>
<path d="M219.827 444.153H228.102L232.231 482.45H223.955L219.827 444.153Z" fill="#473F47"/>
<path d="M177.733 482.45L183.209 444.153H191.484L184.609 482.45H177.733Z" fill="#473F47"/>
<path d="M165.539 368.224H172.957L189.717 432.746H182.299L165.539 368.224Z" fill="#473F47"/>
<path d="M389.092 490.253C381.202 498.143 381.219 510.95 389.11 518.822C391.629 521.324 394.743 523.126 398.19 524.053V528.672H155.007C144.615 528.672 135.377 522.007 132.106 512.139C131.284 509.69 130.864 507.118 130.864 504.529C130.846 491.198 141.641 480.403 154.972 480.385C154.99 480.385 154.989 480.385 155.007 480.385H398.19V485.004C394.761 485.914 391.612 487.733 389.092 490.253Z" fill="#7A98C5"/>
<path d="M398.19 524.054V528.672H155.007C144.615 528.672 135.377 522.007 132.106 512.139C141.343 513.767 199.83 523.091 232.388 504.529L384.893 512.664C387.36 518.298 392.259 522.479 398.19 524.054Z" fill="url(#paint10_linear)"/>
<path d="M389.092 490.253C381.202 498.143 381.219 510.95 389.11 518.822C391.629 521.324 394.743 523.126 398.19 524.054V524.683H252.595C241.433 525.016 232.126 516.233 231.811 505.071C231.478 493.909 240.261 484.602 251.423 484.287C251.825 484.27 252.21 484.27 252.613 484.287H398.207V484.952C394.743 485.879 391.612 487.716 389.092 490.253Z" fill="white"/>
<path d="M206.775 318.013L222.976 324.801L206.775 331.152V318.013Z" fill="#68E1FD"/>
<path opacity="0.6" d="M549.514 322.632H231.697C230.504 322.632 229.536 323.599 229.536 324.792C229.536 325.986 230.504 326.953 231.697 326.953H549.514C550.707 326.953 551.675 325.986 551.675 324.792C551.675 323.599 550.707 322.632 549.514 322.632Z" fill="#EC1C24"/>
<path d="M186.113 410.247C186.113 410.247 184.889 428.512 201.212 434.023C212.863 437.96 226.23 437.103 238.301 436.035C240.243 435.86 243.725 434.881 245.439 436.175C247.854 437.925 246.647 442.806 246.577 445.448C246.419 451.186 246.279 456.907 246.122 462.645C246.122 465.287 246.122 467.999 245.912 470.623C245.702 473.248 245.055 476.327 244.862 479.231C244.81 479.476 244.862 479.738 245.02 479.931C245.23 480.088 245.474 480.158 245.737 480.123L267.116 479.196C267.343 479.213 267.571 479.161 267.763 479.021C268.078 478.723 267.868 478.199 267.623 477.849C265.419 475.015 262.34 472.968 258.876 472.023C258.054 471.813 257.284 471.481 256.566 471.026C254.345 469.276 256.182 465.515 256.689 463.398L258.893 454.195L263.232 436.105C264.527 430.752 264.842 426.675 260.713 422.949C257.004 419.275 252.508 416.476 247.556 414.761L214.998 404.509L186.113 410.247Z" fill="#473F47"/>
<path d="M314.755 349.924L297.278 387.031L264.982 386.804L265.244 384.005L294.933 383.672L311.379 348.559L314.755 349.924Z" fill="#474747"/>
<path d="M229.256 325.938C229.869 326.953 231.111 327.548 231.513 328.65C231.916 329.752 231.058 331.397 230.569 332.744C229.904 334.616 230.114 336.715 229.466 338.605C229.361 339.007 229.116 339.375 228.802 339.655C228.504 339.864 228.154 339.987 227.804 340.057C226.405 340.337 224.97 340.424 223.553 340.302C223.273 340.249 222.993 340.284 222.731 340.407C222.521 340.599 222.398 340.844 222.363 341.124C221.541 344.693 221.594 348.402 222.521 351.936C222.836 353.108 223.168 354.525 222.311 355.435C221.996 355.715 221.611 355.908 221.209 355.995C218.514 356.642 215.96 354.648 214.106 352.496C212.479 350.624 211.079 348.577 209.942 346.373C209.592 345.76 209.347 345.096 209.224 344.396C209.172 343.486 209.294 342.594 209.592 341.736C210.362 338.797 210.817 335.788 210.974 332.744C211.184 328.86 210.974 324.819 212.391 321.215C212.828 319.972 213.651 318.905 214.753 318.188C216.048 317.558 217.5 317.331 218.934 317.506C221.768 317.611 224.865 317.996 226.79 320.077C227.349 320.672 228.522 324.679 229.256 325.938Z" fill="#956226"/>
<path d="M209.382 344.711H209.627C214.77 345.988 222.258 350.676 223.938 355.89C226.055 362.433 227.437 371.233 225.915 378.004C224.883 382.605 222.416 386.751 221.034 391.265C219.861 394.992 219.372 398.946 217.832 402.532C213.878 411.105 204.693 415.986 195.386 414.464C192.989 414.061 190.715 413.064 188.79 411.56C185.256 408.271 183.454 403.512 183.909 398.701C184.416 393.959 185.676 389.323 187.6 384.949L195.613 364.043C197.555 359.039 202.261 343.293 209.382 344.711Z" fill="#F1D4CD"/>
<path d="M205.236 396.129C205.69 396.881 205.988 397.704 206.11 398.578C206.128 399.208 206.058 399.856 205.883 400.468C205.061 403.862 204.711 407.361 204.851 410.86C204.798 411.49 204.991 412.12 205.393 412.61C205.848 412.942 206.39 413.099 206.95 413.099C208.945 413.432 211.009 413.222 212.898 412.505C214.945 411.227 216.485 409.268 217.255 406.994C219.827 400.643 221.769 394.065 223.081 387.347C223.413 386.279 223.518 385.142 223.396 384.022C222.958 382.343 221.873 380.908 220.386 380.034C218.987 379.071 217.395 378.371 216.048 377.322C213.388 375.292 211.429 371.601 207.807 371.129C205.218 370.936 202.874 372.616 202.209 375.117C199.83 381.398 202.384 390.373 205.236 396.129Z" fill="url(#paint11_linear)"/>
<path d="M213.948 359.966C213.948 359.966 221.296 379.841 222.696 381.293C224.095 382.745 208.56 391.528 208.56 391.528C208.56 391.528 198.377 372.196 198.867 363.833C199.357 355.47 208.21 352.076 213.948 359.966Z" fill="#F1D4CD"/>
<path d="M208.595 388.833C208.595 388.833 209.137 395.237 216.975 395.114L251.965 394.624C254.327 393.4 257.581 393.207 259.366 391.125C260.205 390.181 260.643 388.921 261.465 387.941C262.585 386.717 264.072 385.912 265.716 385.667C267.343 385.439 268.988 385.387 270.615 385.544C271.262 384.775 271.262 383.655 270.615 382.885C269.933 382.185 269.041 381.695 268.078 381.503C264.054 380.488 259.803 381.118 256.252 383.252C255.219 383.987 254.1 384.565 252.91 385.002C252.035 385.177 251.143 385.229 250.251 385.142C240.191 384.67 230.254 382.535 220.194 382.08C217.832 381.853 215.453 382.098 213.196 382.815C210.782 383.952 209.067 386.192 208.595 388.833Z" fill="#956226"/>
<path d="M259.698 390.968H254.747V481.558H259.698V390.968Z" fill="#D8D8D8"/>
<path d="M315.56 390.968H310.609V481.558H315.56V390.968Z" fill="#D8D8D8"/>
<path d="M318.272 387.031H248.939V394.904H318.272V387.031Z" fill="#68E1FD"/>
<path d="M318.272 387.031H248.939V394.904H318.272V387.031Z" fill="#D8D8D8"/>
<path d="M226.877 310.053C225.163 307.428 222.328 305.766 219.197 305.591C217.115 305.276 214.98 305.871 213.371 307.236C212.741 307.866 212.269 308.653 211.621 309.265C209.749 311.015 206.863 310.805 204.623 311.872C202.594 312.922 201.037 314.689 200.267 316.841C199.515 318.975 199.077 321.214 199.007 323.471C198.762 325.536 198.867 327.635 199.34 329.665C200.25 332.709 202.524 335.141 205.498 336.26C206.198 336.418 206.845 336.768 207.37 337.24C207.79 337.712 207.93 338.395 208.332 338.885C209.33 340.109 211.324 339.654 212.566 338.692C213.651 337.555 214.875 336.575 216.223 335.77L212.724 331.029C212.269 330.557 212.024 329.927 212.006 329.28C212.216 328.492 212.951 327.968 213.756 328.003C214.543 328.073 215.278 328.405 215.873 328.93C216.38 329.35 217.15 329.822 217.622 329.332C217.762 329.175 217.85 328.982 217.867 328.772C218.252 326.428 216.118 324.101 216.747 321.774C216.8 321.564 216.922 321.372 217.08 321.232C217.325 321.11 217.605 321.057 217.885 321.127C219.284 321.354 220.701 321.389 222.101 321.232C226.527 320.41 229.082 313.849 226.877 310.053Z" fill="#473F47"/>
<path d="M220.544 359.424C220.544 360.281 220.544 361.366 219.652 361.576C219.302 361.629 218.934 361.594 218.62 361.436C217.272 360.964 216.013 360.316 214.841 359.512C215.138 366.755 216.135 373.945 217.797 380.996C217.867 381.398 218.025 381.783 218.252 382.115C218.759 382.605 219.459 382.85 220.159 382.815C221.874 382.903 223.606 382.658 225.233 382.08C220.894 374.872 220.701 365.722 223.151 357.692C223.658 356.537 223.798 355.243 223.536 354.001C222.556 352.269 220.894 351.026 218.952 350.589C218.427 353.231 220.334 356.73 220.544 359.424Z" fill="url(#paint12_linear)"/>
<path d="M500 155.5C497.415 164.528 477.467 161.761 468.104 153.577C452 139.5 442.914 133.028 445.5 124C448.085 114.972 464.194 117.082 477.467 120.883C490.741 124.684 502.586 146.472 500 155.5Z" fill="#4C2F02"/>
<g filter="url(#filter0_d)">
<circle cx="547.5" cy="324.5" r="7.5" fill="#EC1C24"/>
<circle cx="547.5" cy="324.5" r="6.5" stroke="white" stroke-width="2"/>
</g>
<path d="M255.361 117.978C255.477 118.291 255.724 118.447 256.102 118.447C256.262 118.447 256.393 118.389 256.495 118.273C256.597 118.156 256.648 118.011 256.648 117.836C256.648 117.422 256.575 116.76 256.43 115.852C256.277 114.965 256.201 114.3 256.201 113.856C256.201 113.514 256.117 113.231 255.95 113.006C255.782 112.78 255.55 112.667 255.252 112.667C254.954 112.667 254.583 112.715 254.139 112.809C253.9 112.86 253.703 112.94 253.551 113.049C253.398 113.151 253.322 113.271 253.322 113.409C253.322 113.831 253.576 114.042 254.085 114.042C254.23 114.042 254.405 114.027 254.608 113.998L254.957 113.954C255.066 114.143 255.15 114.492 255.208 115.001C255.274 115.51 255.31 116.012 255.317 116.506C254.881 117.131 254.332 117.444 253.671 117.444C253.329 117.444 253.02 117.368 252.744 117.215C252.467 117.069 252.235 116.88 252.046 116.648C251.857 116.415 251.697 116.117 251.566 115.754C251.435 115.405 251.33 115.059 251.25 114.718C251.177 114.369 251.119 113.969 251.075 113.518C251.032 113.111 251.002 112.747 250.988 112.428C250.981 112.108 250.977 111.722 250.977 111.272C250.977 110.959 250.981 110.701 250.988 110.497V109.887C250.988 109.152 251.002 108.447 251.032 107.771C251.046 107.313 251.072 106.895 251.108 106.517C251.152 106.139 251.217 105.652 251.304 105.056C251.362 104.591 251.45 104.173 251.566 103.802C251.682 103.431 251.824 103.064 251.991 102.7C252.144 102.373 252.333 102.126 252.558 101.959C252.784 101.784 253.034 101.697 253.311 101.697C253.369 101.697 253.478 101.715 253.638 101.752C253.798 101.788 253.903 101.806 253.954 101.806C254.114 101.806 254.252 101.759 254.368 101.664C254.485 101.563 254.543 101.435 254.543 101.283C254.543 100.861 254.234 100.65 253.616 100.65C253.231 100.65 252.878 100.705 252.558 100.814C252.231 100.93 251.948 101.086 251.708 101.283C251.468 101.472 251.25 101.712 251.053 102.002C250.857 102.286 250.694 102.584 250.563 102.897C250.439 103.202 250.326 103.558 250.225 103.965C250.036 104.743 249.916 105.521 249.865 106.299C249.814 107.12 249.788 107.887 249.788 108.6C249.788 108.942 249.792 109.236 249.799 109.483V110.247C249.799 110.726 249.803 111.061 249.81 111.25C249.81 111.548 249.825 111.933 249.854 112.406C249.89 112.871 249.93 113.275 249.974 113.616C250.025 114.023 250.094 114.449 250.181 114.892C250.275 115.328 250.385 115.699 250.508 116.004C250.654 116.375 250.828 116.728 251.032 117.062C251.235 117.389 251.453 117.651 251.686 117.847C251.948 118.08 252.249 118.262 252.591 118.393C252.94 118.523 253.314 118.589 253.714 118.589C253.889 118.589 254.063 118.56 254.238 118.502C254.412 118.443 254.623 118.345 254.87 118.207C255.132 118.062 255.295 117.978 255.361 117.956V117.978ZM263.354 104.249C263.354 104.067 263.194 103.904 262.874 103.758C262.562 103.605 262.187 103.486 261.751 103.398C261.322 103.304 260.966 103.257 260.682 103.257C260.057 103.257 259.745 103.784 259.745 104.838C259.745 105.049 259.766 105.361 259.81 105.776C259.846 106.248 259.865 106.564 259.865 106.724C259.865 107.546 259.839 108.633 259.788 109.985C259.737 111.337 259.712 112.424 259.712 113.245C259.712 113.493 259.73 113.969 259.766 114.674C259.803 115.386 259.821 115.863 259.821 116.103L259.843 116.571C259.85 116.71 259.854 116.859 259.854 117.019V117.607C259.861 117.796 259.941 117.956 260.094 118.087C260.254 118.225 260.435 118.294 260.639 118.294H262.525C262.794 118.294 263.02 118.24 263.201 118.131C263.391 118.022 263.485 117.862 263.485 117.651C263.485 117.288 263.201 117.106 262.634 117.106L261.718 117.128L260.988 117.16C260.959 117.16 260.944 116.742 260.944 115.906C260.944 115.557 260.962 114.881 260.999 113.878C261.028 113.071 261.042 112.398 261.042 111.861C261.042 111.301 261.021 110.737 260.977 110.17H261.544C261.748 110.199 261.958 110.214 262.176 110.214C262.38 110.214 262.547 110.156 262.678 110.039C262.816 109.916 262.885 109.774 262.885 109.614C262.885 109.207 262.525 109.003 261.806 109.003C261.638 109.003 261.493 109.007 261.369 109.014L261.01 109.036L260.944 108.687C260.944 108.404 260.962 107.869 260.999 107.084C261.028 106.452 261.042 105.917 261.042 105.481C261.042 105.154 261.031 104.834 261.01 104.521C261.453 104.58 262.016 104.721 262.7 104.947C262.889 104.874 263.045 104.78 263.169 104.663C263.292 104.54 263.354 104.402 263.354 104.249ZM273.005 109.298C273.005 108.585 272.961 107.924 272.874 107.313C272.787 106.688 272.638 106.106 272.427 105.568C272.224 105.03 271.973 104.576 271.675 104.205C271.355 103.82 270.955 103.518 270.475 103.3C269.995 103.082 269.457 102.973 268.861 102.973C268.658 102.973 268.472 103.053 268.305 103.213C268.138 103.366 268 103.591 267.891 103.889C267.76 104.231 267.654 104.561 267.574 104.881C267.494 105.194 267.433 105.554 267.389 105.961C267.331 106.463 267.287 106.87 267.258 107.182C267.236 107.495 267.222 107.851 267.215 108.251C267.207 108.418 267.204 108.618 267.204 108.851C267.189 109.374 267.182 109.694 267.182 109.81V110.214C267.204 110.214 267.215 110.25 267.215 110.323C267.215 110.476 267.211 110.61 267.204 110.726C267.196 110.843 267.193 110.992 267.193 111.174C267.193 112.097 267.255 113.067 267.378 114.085C267.502 115.183 267.774 116.172 268.196 117.051C268.392 117.48 268.654 117.815 268.981 118.055C269.308 118.294 269.672 118.414 270.072 118.414C272.056 118.414 273.049 116.273 273.049 111.991L273.027 110.726L273.005 109.461V109.298ZM269.712 104.162C270.053 104.162 270.362 104.26 270.639 104.456C270.915 104.645 271.133 104.903 271.293 105.23C271.453 105.55 271.54 105.892 271.555 106.255V106.648C271.555 107.171 271.606 108.033 271.707 109.232C271.802 110.345 271.849 111.217 271.849 111.85C271.849 112.388 271.816 113.049 271.751 113.834C271.671 114.714 271.5 115.528 271.238 116.277C271.108 116.655 270.929 116.953 270.704 117.171C270.486 117.382 270.246 117.487 269.984 117.487C269.759 117.487 269.552 117.342 269.363 117.051C269.181 116.753 269.036 116.346 268.927 115.83C268.694 114.776 268.549 113.689 268.49 112.569C268.432 111.515 268.403 110.719 268.403 110.181C268.403 110.007 268.421 109.665 268.458 109.156C268.494 108.647 268.512 108.302 268.512 108.12C268.512 107.917 268.509 107.717 268.501 107.52C268.494 107.324 268.49 107.084 268.49 106.801C268.49 106.43 268.505 106.11 268.534 105.841C268.563 105.565 268.618 105.292 268.698 105.023C268.865 104.449 269.203 104.162 269.712 104.162ZM284.542 109.211C284.542 109.792 284.597 110.723 284.706 112.002C284.815 113.275 284.87 114.245 284.87 114.914V116.342C284.862 116.771 284.859 117.248 284.859 117.771C284.859 118.702 285.091 119.167 285.557 119.167C285.775 119.167 285.953 119.069 286.091 118.872C286.236 118.676 286.309 118.454 286.309 118.207C286.309 118.091 286.276 117.949 286.211 117.782L286.167 117.335C286.08 116.412 286.036 115.884 286.036 115.754V115.743C286.036 115.481 286.047 115.088 286.069 114.565L286.091 113.387C286.091 112.34 286.044 110.788 285.949 108.731C285.855 106.673 285.807 105.067 285.807 103.911C285.807 103.729 285.724 103.584 285.557 103.475C285.389 103.358 285.2 103.3 284.99 103.3C284.771 103.3 284.521 103.613 284.237 104.238C283.968 104.841 283.692 105.645 283.408 106.648C282.972 108.204 282.496 110.09 281.98 112.308C281.784 113.151 281.645 113.703 281.565 113.965C281.413 113.173 281.075 111.893 280.551 110.127C280.028 108.353 279.508 106.768 278.992 105.372C278.476 103.969 278.119 103.267 277.923 103.267C277.691 103.267 277.487 103.315 277.313 103.409C277.145 103.496 277.062 103.631 277.062 103.813C277.062 103.958 277.105 104.103 277.193 104.249C277.193 105.819 277.08 108.095 276.854 111.075C276.622 114.158 276.506 116.433 276.506 117.902C276.506 118.047 276.571 118.171 276.702 118.273C276.84 118.382 276.985 118.436 277.138 118.436C277.414 118.436 277.607 118.374 277.716 118.251C277.825 118.134 277.88 117.949 277.88 117.695C277.88 117.578 277.876 117.469 277.869 117.368L277.847 117.029C277.847 116.302 277.865 115.365 277.901 114.216C277.93 113.344 277.96 112.529 277.989 111.773C278.025 111.017 278.076 110.061 278.141 108.905L278.272 106.386C278.541 107.193 278.854 108.266 279.21 109.603C279.566 110.934 279.872 112.191 280.126 113.376C280.388 114.554 280.519 115.361 280.519 115.797C280.519 116.088 280.602 116.321 280.769 116.495C280.937 116.67 281.162 116.757 281.445 116.757C281.729 116.757 282.096 116.019 282.547 114.543C282.961 113.184 283.405 111.515 283.877 109.538C284.313 107.684 284.564 106.655 284.63 106.452C284.63 106.822 284.615 107.28 284.586 107.826C284.557 108.378 284.542 108.84 284.542 109.211ZM293.517 104.249C293.517 104.067 293.357 103.904 293.037 103.758C292.725 103.605 292.35 103.486 291.914 103.398C291.485 103.304 291.129 103.257 290.846 103.257C290.22 103.257 289.908 103.784 289.908 104.838C289.908 105.049 289.93 105.361 289.973 105.776C290.009 106.248 290.028 106.564 290.028 106.724C290.028 107.546 290.002 108.633 289.951 109.985C289.9 111.337 289.875 112.424 289.875 113.245C289.875 113.493 289.893 113.969 289.93 114.674C289.966 115.386 289.984 115.863 289.984 116.103L290.006 116.571C290.013 116.71 290.017 116.859 290.017 117.019V117.607C290.024 117.796 290.104 117.956 290.257 118.087C290.417 118.225 290.598 118.294 290.802 118.294H292.688C292.957 118.294 293.183 118.24 293.365 118.131C293.554 118.022 293.648 117.862 293.648 117.651C293.648 117.288 293.365 117.106 292.798 117.106L291.882 117.128L291.151 117.16C291.122 117.16 291.107 116.742 291.107 115.906C291.107 115.557 291.125 114.881 291.162 113.878C291.191 113.071 291.205 112.398 291.205 111.861C291.205 111.301 291.184 110.737 291.14 110.17H291.707C291.911 110.199 292.121 110.214 292.34 110.214C292.543 110.214 292.71 110.156 292.841 110.039C292.979 109.916 293.048 109.774 293.048 109.614C293.048 109.207 292.688 109.003 291.969 109.003C291.802 109.003 291.656 109.007 291.533 109.014L291.173 109.036L291.107 108.687C291.107 108.404 291.125 107.869 291.162 107.084C291.191 106.452 291.205 105.917 291.205 105.481C291.205 105.154 291.194 104.834 291.173 104.521C291.616 104.58 292.18 104.721 292.863 104.947C293.052 104.874 293.208 104.78 293.332 104.663C293.455 104.54 293.517 104.402 293.517 104.249ZM299.155 116.779L299.177 117.64L299.591 117.935C299.788 117.935 299.962 117.869 300.115 117.738C300.275 117.6 300.355 117.444 300.355 117.269C300.355 115.808 300.231 113.693 299.984 110.923C299.737 108.153 299.613 106.041 299.613 104.587L299.635 104.456L299.657 104.358L300.104 104.434C300.336 104.485 300.529 104.511 300.682 104.511C300.878 104.511 301.049 104.452 301.194 104.336C301.347 104.22 301.423 104.074 301.423 103.9C301.423 103.544 301.191 103.366 300.725 103.366H300.54C300.489 103.373 300.431 103.376 300.366 103.376C300.002 103.376 299.497 103.34 298.85 103.267C298.174 103.202 297.668 103.169 297.334 103.169C297.167 103.169 297.007 103.217 296.854 103.311C296.701 103.406 296.625 103.518 296.625 103.649C296.625 103.802 296.701 103.929 296.854 104.031C297.109 104.198 297.665 104.292 298.523 104.314C298.544 105.143 298.643 107.117 298.817 110.236C298.992 113.347 299.108 114.99 299.166 115.165L299.133 115.928L299.155 116.779ZM308.817 118.382C308.962 118.382 309.082 118.327 309.177 118.218C309.271 118.109 309.319 117.975 309.319 117.815C309.319 117.713 309.3 117.611 309.264 117.509C309.228 117.4 309.169 117.269 309.09 117.117L308.948 116.833C308.671 116.237 308.435 115.579 308.239 114.859C308.043 114.132 307.843 113.213 307.639 112.1L307.214 109.974L307.563 109.32L307.988 108.513C308.075 108.309 308.159 108.066 308.239 107.782C308.319 107.499 308.359 107.251 308.359 107.041V105.47C308.359 104.976 308.239 104.554 307.999 104.205C307.759 103.849 307.428 103.58 307.007 103.398C306.592 103.209 306.123 103.115 305.6 103.115C305.106 103.115 304.858 103.467 304.858 104.173C304.858 105.517 304.924 107.553 305.055 110.279C305.178 113.086 305.24 115.117 305.24 116.375L305.218 117.869L305.513 118.196H306.134L306.385 117.597C306.102 116.462 305.96 114.91 305.96 112.94C305.96 112.475 305.963 112.064 305.971 111.708C305.978 111.352 305.982 110.955 305.982 110.519H306.254C306.385 110.839 306.658 112.057 307.072 114.172L307.225 114.925C307.407 115.819 307.639 116.611 307.923 117.302C308.206 118.022 308.504 118.382 308.817 118.382ZM307.247 106.026C307.247 106.404 307.196 106.841 307.094 107.335C306.992 107.822 306.85 108.262 306.669 108.654C306.494 109.047 306.298 109.301 306.08 109.418C306.08 108.764 306.065 107.924 306.036 106.899C306.007 105.881 305.993 105.001 305.993 104.26C305.993 104.216 306.007 104.154 306.036 104.074L306.069 103.944C306.331 103.951 306.545 104.02 306.712 104.151C306.887 104.274 307.01 104.452 307.083 104.685C307.148 104.918 307.192 105.132 307.214 105.328C307.236 105.517 307.247 105.75 307.247 106.026ZM315.861 110.083C315.869 109.371 316.09 108.291 316.527 106.844C316.948 105.448 317.159 104.372 317.159 103.616C317.159 103.486 317.101 103.376 316.985 103.289C316.876 103.195 316.752 103.147 316.614 103.147C316.323 103.147 316.061 103.515 315.829 104.249C315.589 105.005 315.385 105.845 315.218 106.768C315.051 107.691 314.935 108.247 314.869 108.436C314.833 108.298 314.749 107.993 314.618 107.52C314.495 107.041 314.338 106.506 314.149 105.917C313.968 105.321 313.793 104.83 313.626 104.445C313.342 103.805 313.073 103.478 312.819 103.464L312.317 103.834V103.954C312.317 104.216 312.456 104.75 312.732 105.557C312.964 106.226 313.277 107.073 313.67 108.098C314.069 109.116 314.346 109.81 314.498 110.181V110.759C314.506 110.97 314.553 111.493 314.64 112.329C314.72 113.093 314.76 113.66 314.76 114.031C314.76 116.219 314.676 117.48 314.509 117.815C314.655 118.142 314.862 118.305 315.131 118.305C315.618 118.305 315.861 117.807 315.861 116.811V110.083Z" fill="black"/>
<defs>
<filter id="filter0_d" x="538" y="315" width="19" height="19" filterUnits="userSpaceOnUse" color-interpolation-filters="sRGB">
<feFlood flood-opacity="0" result="BackgroundImageFix"/>
<feColorMatrix in="SourceAlpha" type="matrix" values="0 0 0 0 0 0 0 0 0 0 0 0 0 0 0 0 0 0 127 0"/>
<feOffset/>
<feGaussianBlur stdDeviation="1"/>
<feColorMatrix type="matrix" values="0 0 0 0 0 0 0 0 0 0 0 0 0 0 0 0 0 0 0.2 0"/>
<feBlend mode="normal" in2="BackgroundImageFix" result="effect1_dropShadow"/>
<feBlend mode="normal" in="SourceGraphic" in2="effect1_dropShadow" result="shape"/>
</filter>
<linearGradient id="paint0_linear" x1="393.667" y1="247.831" x2="724.694" y2="83.306" gradientUnits="userSpaceOnUse">
<stop offset="0.01"/>
<stop offset="0.08" stop-opacity="0.69"/>
<stop offset="0.21" stop-opacity="0.32"/>
<stop offset="1" stop-opacity="0"/>
</linearGradient>
<linearGradient id="paint1_linear" x1="468.526" y1="396.202" x2="458.256" y2="69.7776" gradientUnits="userSpaceOnUse">
<stop offset="0.01"/>
<stop offset="0.08" stop-opacity="0.69"/>
<stop offset="0.21" stop-opacity="0.32"/>
<stop offset="1" stop-opacity="0"/>
</linearGradient>
<linearGradient id="paint2_linear" x1="503.871" y1="267.641" x2="566.241" y2="246.717" gradientUnits="userSpaceOnUse">
<stop offset="0.01"/>
<stop offset="0.08" stop-opacity="0.69"/>
<stop offset="0.21" stop-opacity="0.32"/>
<stop offset="1" stop-opacity="0"/>
</linearGradient>
<linearGradient id="paint3_linear" x1="496.099" y1="236.49" x2="449.702" y2="187.801" gradientUnits="userSpaceOnUse">
<stop offset="0.01"/>
<stop offset="0.08" stop-opacity="0.69"/>
<stop offset="0.21" stop-opacity="0.32"/>
<stop offset="1" stop-opacity="0"/>
</linearGradient>
<linearGradient id="paint4_linear" x1="482.834" y1="262.248" x2="436.909" y2="230.301" gradientUnits="userSpaceOnUse">
<stop offset="0.01"/>
<stop offset="0.08" stop-opacity="0.69"/>
<stop offset="0.21" stop-opacity="0.32"/>
<stop offset="1" stop-opacity="0"/>
</linearGradient>
<linearGradient id="paint5_linear" x1="432.114" y1="239.581" x2="483.865" y2="185.294" gradientUnits="userSpaceOnUse">
<stop offset="0.01"/>
<stop offset="0.08" stop-opacity="0.69"/>
<stop offset="0.21" stop-opacity="0.32"/>
<stop offset="1" stop-opacity="0"/>
</linearGradient>
<linearGradient id="paint6_linear" x1="443.235" y1="262.25" x2="489.177" y2="230.304" gradientUnits="userSpaceOnUse">
<stop offset="0.01"/>
<stop offset="0.08" stop-opacity="0.69"/>
<stop offset="0.21" stop-opacity="0.32"/>
<stop offset="1" stop-opacity="0"/>
</linearGradient>
<linearGradient id="paint7_linear" x1="490.709" y1="205.4" x2="451.905" y2="501.348" gradientUnits="userSpaceOnUse">
<stop offset="0.01"/>
<stop offset="0.08" stop-opacity="0.69"/>
<stop offset="0.21" stop-opacity="0.32"/>
<stop offset="1" stop-opacity="0"/>
</linearGradient>
<linearGradient id="paint8_linear" x1="327.301" y1="293.189" x2="389.374" y2="814.843" gradientUnits="userSpaceOnUse">
<stop offset="0.01"/>
<stop offset="0.08" stop-opacity="0.69"/>
<stop offset="0.21" stop-opacity="0.32"/>
<stop offset="1" stop-opacity="0"/>
</linearGradient>
<linearGradient id="paint9_linear" x1="475.221" y1="343.578" x2="537.294" y2="865.232" gradientUnits="userSpaceOnUse">
<stop offset="0.01"/>
<stop offset="0.08" stop-opacity="0.69"/>
<stop offset="0.21" stop-opacity="0.32"/>
<stop offset="1" stop-opacity="0"/>
</linearGradient>
<linearGradient id="paint10_linear" x1="244.388" y1="343.578" x2="306.46" y2="865.231" gradientUnits="userSpaceOnUse">
<stop offset="0.01"/>
<stop offset="0.08" stop-opacity="0.69"/>
<stop offset="0.21" stop-opacity="0.32"/>
<stop offset="1" stop-opacity="0"/>
</linearGradient>
<linearGradient id="paint11_linear" x1="179.465" y1="395.562" x2="269.845" y2="384.978" gradientUnits="userSpaceOnUse">
<stop offset="0.01"/>
<stop offset="0.08" stop-opacity="0.69"/>
<stop offset="0.21" stop-opacity="0.32"/>
<stop offset="1" stop-opacity="0"/>
</linearGradient>
<linearGradient id="paint12_linear" x1="268.681" y1="381.659" x2="138.639" y2="342.26" gradientUnits="userSpaceOnUse">
<stop offset="0.01"/>
<stop offset="0.08" stop-opacity="0.69"/>
<stop offset="0.21" stop-opacity="0.32"/>
<stop offset="1" stop-opacity="0"/>
</linearGradient>
</defs>
</svg>
