<svg width="40" height="50" viewBox="0 0 40 50" fill="none" xmlns="http://www.w3.org/2000/svg">
<path d="M19.5 5C13.25 5 8.25 10.0781 8.25 16.25C8.25 22.1094 12.625 26.7969 18.25 27.4219V43.5156L19.1094 44.8438C19.2656 45.0781 19.6562 45.0781 19.8125 44.8438L20.75 43.5156V27.4219C26.2969 26.7969 30.75 22.1094 30.75 16.25C30.75 10.0781 25.6719 5 19.5 5ZM19.5 25C14.6562 25 10.75 21.0938 10.75 16.25C10.75 11.4844 14.6562 7.5 19.5 7.5C24.2656 7.5 28.25 11.4844 28.25 16.25C28.25 21.0938 24.2656 25 19.5 25ZM19.5 10C15.9844 10 13.25 12.8125 13.25 16.25C13.25 16.9531 13.7969 17.5 14.5 17.5C15.125 17.5 15.75 16.9531 15.75 16.25C15.75 14.2188 17.3906 12.5 19.5 12.5C20.125 12.5 20.75 11.9531 20.75 11.25C20.75 10.625 20.125 10 19.5 10Z" fill="black"/>
</svg>
