<svg width="40" height="42" viewBox="0 0 40 42" fill="none" xmlns="http://www.w3.org/2000/svg">
<path d="M30.3594 10.7578C27.6367 7.96875 23.918 6.375 19.9336 6.375C11.832 6.375 5.19141 13.0156 5.19141 21.1172C5.19141 23.7734 5.92188 26.2969 7.18359 28.4883L5.125 36.125L12.8945 34.1328C15.0859 35.2617 17.4766 35.9258 19.9336 35.9258C28.1016 35.9258 34.875 29.2852 34.875 21.1836C34.875 17.1992 33.1484 13.5469 30.3594 10.7578ZM19.9336 33.4023C17.7422 33.4023 15.6172 32.8047 13.6914 31.6758L13.293 31.4102L8.64453 32.6719L9.90625 28.1562L9.57422 27.6914C8.37891 25.6992 7.71484 23.4414 7.71484 21.1172C7.71484 14.4102 13.2266 8.89844 20 8.89844C23.2539 8.89844 26.3086 10.1602 28.6328 12.4844C30.957 14.8086 32.3516 17.8633 32.3516 21.1836C32.3516 27.8906 26.707 33.4023 19.9336 33.4023ZM26.707 24.2383C26.3086 24.0391 24.5156 23.1758 24.1836 23.043C23.8516 22.9102 23.5859 22.8438 23.3203 23.2422C23.1211 23.5742 22.3906 24.4375 22.1914 24.7031C21.9258 24.9023 21.7266 24.9688 21.3945 24.7695C19.2031 23.707 17.8086 22.8438 16.3477 20.3867C15.9492 19.7227 16.7461 19.7891 17.4102 18.3945C17.543 18.1289 17.4766 17.9297 17.4102 17.7305C17.3438 17.5312 16.5469 15.7383 16.2812 15.0078C15.9492 14.2773 15.6836 14.3438 15.418 14.3438C15.2188 14.3438 14.9531 14.3438 14.7539 14.3438C14.4883 14.3438 14.0898 14.4102 13.7578 14.8086C13.4258 15.207 12.4961 16.0703 12.4961 17.8633C12.4961 19.7227 13.7578 21.4492 13.957 21.7148C14.1562 21.9141 16.5469 25.6328 20.2656 27.2266C22.5898 28.2891 23.5195 28.3555 24.7148 28.1562C25.3789 28.0898 26.8398 27.293 27.1719 26.4297C27.5039 25.5664 27.5039 24.8359 27.3711 24.7031C27.3047 24.5039 27.0391 24.4375 26.707 24.2383Z" fill="black"/>
</svg>
