<svg width="40" height="40" viewBox="0 0 40 40" fill="none" xmlns="http://www.w3.org/2000/svg">
<path d="M33 8H7C5.3125 8 4 9.375 4 11V29C4 30.6875 5.3125 32 7 32H33C34.625 32 36 30.6875 36 29V11C36 9.375 34.625 8 33 8ZM7 10H33C33.5 10 34 10.5 34 11V13.625C32.625 14.75 30.625 16.375 24.5625 21.1875C23.5 22.0625 21.4375 24.0625 20 24C18.5 24.0625 16.4375 22.0625 15.375 21.1875C9.3125 16.375 7.3125 14.75 6 13.625V11C6 10.5 6.4375 10 7 10ZM33 30H7C6.4375 30 6 29.5625 6 29V16.1875C7.375 17.375 9.625 19.1875 14.125 22.75C15.4375 23.8125 17.6875 26.0625 20 26C22.25 26.0625 24.5 23.8125 25.8125 22.75C30.3125 19.1875 32.5625 17.375 34 16.1875V29C34 29.5625 33.5 30 33 30Z" fill="black"/>
</svg>
