<svg width="40" height="40" viewBox="0 0 40 40" fill="none" xmlns="http://www.w3.org/2000/svg">
<path d="M33.8125 7.5H6.1875C4.39453 7.5 3 8.96094 3 10.6875V29.8125C3 31.6055 4.39453 33 6.1875 33H33.8125C35.5391 33 37 31.6055 37 29.8125V10.6875C37 8.96094 35.5391 7.5 33.8125 7.5ZM6.1875 9.625H33.8125C34.3438 9.625 34.875 10.1562 34.875 10.6875V13.4766C33.4141 14.6719 31.2891 16.3984 24.8477 21.5117C23.7188 22.4414 21.5273 24.5664 20 24.5C18.4062 24.5664 16.2148 22.4414 15.0859 21.5117C8.64453 16.3984 6.51953 14.6719 5.125 13.4766V10.6875C5.125 10.1562 5.58984 9.625 6.1875 9.625ZM33.8125 30.875H6.1875C5.58984 30.875 5.125 30.4102 5.125 29.8125V16.1992C6.58594 17.4609 8.97656 19.3867 13.7578 23.1719C15.1523 24.3008 17.543 26.6914 20 26.625C22.3906 26.6914 24.7812 24.3008 26.1758 23.1719C30.957 19.3867 33.3477 17.4609 34.875 16.1992V29.8125C34.875 30.4102 34.3438 30.875 33.8125 30.875Z" fill="#73E5E2"/>
<circle cx="20" cy="25" r="4" fill="#FBDC8E"/>
<rect x="13" y="12" width="15" height="1" fill="#C4C4C4"/>
<rect x="13" y="15" width="15" height="1" fill="#C4C4C4"/>
<rect x="16" y="18" width="9" height="1" fill="#C4C4C4"/>
</svg>
