<svg width="72" height="49" viewBox="0 0 72 49" fill="none" xmlns="http://www.w3.org/2000/svg">
<path d="M21.3116 20.8964V32.5322H17.6352V17.9066L25.2253 17.9141C28.4491 17.9141 29.5473 20.2046 29.5473 22.285V32.5323H25.8775V22.3042C25.8775 21.4327 25.4297 20.8964 24.3496 20.8964H21.3116V20.8964ZM46.3111 20.7217C45.0545 20.7217 44.082 21.3725 43.6758 22.2561C43.4351 22.7865 43.3523 23.1931 43.324 23.8426H48.9801C48.9075 22.2561 48.1934 20.7217 46.3111 20.7217ZM43.324 26.3635C43.324 28.2581 44.493 29.6525 46.5801 29.6525C48.204 29.6525 49.0111 29.1991 49.95 28.2581L52.2207 30.4424C50.7668 31.8885 49.2411 32.7667 46.5532 32.7667C43.0338 32.7667 39.6657 30.8334 39.6657 25.1987C39.6657 20.3842 42.6063 17.6587 46.4704 17.6587C50.3871 17.6587 52.6499 20.8496 52.6499 25.0293V26.3635H43.324ZM36.5622 32.514C33.5671 32.514 32.2964 30.4134 32.2964 28.3388V13.9217H35.9671V17.9066H38.7343V20.8964H35.9671V28.1069C35.9671 28.9566 36.3653 29.4282 37.241 29.4282H38.7343V32.514H36.5622ZM14.364 15.8854H10.6623V12.3427H14.364V15.8854ZM14.3733 32.686C11.6012 32.4177 10.6583 30.7237 10.6583 28.7689L10.6624 17.9066H14.3733V32.686H14.3733ZM58.4923 32.3735C55.726 32.1047 54.7875 30.4134 54.7875 28.4613V11.8386H58.4923V32.3735ZM71.4438 14.2409C68.0863 -2.25085 36.3113 -3.29487 15.8304 9.26684V10.6537C36.2906 0.0600922 65.3081 0.1225 67.9518 15.3121C68.8363 20.3347 66.0271 25.5713 61.0099 28.5813V32.5193C67.0488 30.2935 73.242 23.0758 71.4438 14.2409ZM34.214 43.095C20.0789 44.4114 5.34916 42.3444 3.28814 31.2163C2.27931 25.7305 4.75979 19.9152 8.05043 16.3031V14.3715C2.12666 19.605 -1.08832 26.2306 0.76253 34.0595C3.12487 44.0985 15.7666 49.7876 35.0623 47.8984C42.6966 47.1477 52.6889 44.6745 59.6356 40.8331V35.3759C53.3322 39.1575 42.9015 42.2846 34.214 43.095Z" fill="#0071C5"/>
</svg>
