<svg width="687" height="535" viewBox="0 0 687 535" fill="none" xmlns="http://www.w3.org/2000/svg">
<g clip-path="url(#clip0)">
<path d="M221.474 496.057C339.402 496.057 435.002 400.457 435.002 282.528C435.002 164.6 339.402 69 221.474 69C103.545 69 7.94531 164.6 7.94531 282.528C7.94531 400.457 103.545 496.057 221.474 496.057Z" fill="#ECF3FD"/>
<g clip-path="url(#clip1)">
<path d="M523.998 437.566V436.771L522.09 434.386L517.718 429.021L513.028 423.345C513.028 423.345 508.513 420.221 507.352 419.681C503.123 417.725 498.958 416.231 493.982 416.231C490.921 416.231 479.483 416.692 479.459 418.615C479.459 421.469 495.476 432.272 507.225 437.518C512.344 437.566 523.998 437.566 523.998 437.566Z" fill="#1F161E"/>
<path d="M521.573 437.566C505.269 425.046 471.995 356.605 480.524 331.247C498.696 340.508 518.632 372.439 528.036 399.403C528.533 401.157 528.931 402.937 529.228 404.736L533.044 422.224L533.997 437.566H521.573Z" fill="#FBDC8E"/>
<path d="M532.702 437.566C527.201 433.099 525.444 419.871 525.397 414.935C525.309 405.722 526.724 398.934 534.602 388.798C542.479 378.663 540.357 361.843 550.85 350.508C561.342 339.172 568.242 336.017 580.659 336.017C593.075 336.017 597.01 356.144 596.978 361.207C596.835 381.62 583.965 384.506 576.128 394.259C570.428 401.334 569.983 407.121 568.258 410.428C558.989 428.226 551.485 434.951 545.921 437.566" fill="#73E5E2"/>
<path d="M535.706 436.087C535.865 401.247 572.582 348.918 580.428 341.072" stroke="white" stroke-width="0.317963" stroke-linecap="round" stroke-linejoin="round"/>
<path d="M537.718 420.277C533.656 415.849 529.959 403.298 530.516 400.038" stroke="white" stroke-width="0.317963" stroke-linecap="round" stroke-linejoin="round"/>
<path d="M527.312 434.585C521.557 424.363 494.252 374.633 484.038 337.996" stroke="white" stroke-width="0.317963" stroke-linecap="round" stroke-linejoin="round"/>
<path d="M545.921 437.566H563.012L548.703 490.864H510.444L496.367 437.566H545.921Z" fill="#B37361"/>
<path d="M485.015 419.704C493.354 420.277 503.847 420.658 511.287 425.706" stroke="white" stroke-width="0.317963" stroke-linecap="round" stroke-linejoin="round"/>
</g>
<path d="M675.802 487.684C676.52 490.415 679.315 492.046 682.046 491.328C684.777 490.61 686.409 487.815 685.691 485.084L634.567 290.626C633.849 287.895 631.053 286.263 628.322 286.981C625.592 287.699 623.96 290.495 624.678 293.226L675.802 487.684Z" fill="#969696"/>
<path d="M624.165 293.229C624.883 290.498 623.251 287.702 620.52 286.984C617.79 286.266 614.994 287.898 614.276 290.629L563.152 485.087C562.434 487.818 564.066 490.613 566.796 491.331C569.527 492.049 572.323 490.418 573.041 487.687L624.165 293.229Z" fill="#969696"/>
<path d="M553.63 293.237C554.348 290.506 552.716 287.711 549.985 286.993C547.254 286.275 544.459 287.907 543.741 290.637L492.617 485.096C491.899 487.826 493.53 490.622 496.261 491.34C498.992 492.058 501.788 490.426 502.506 487.695L553.63 293.237Z" fill="#D8D8D8"/>
<path d="M604.376 487.689C605.094 490.419 607.889 492.051 610.62 491.333C613.351 490.615 614.983 487.82 614.265 485.089L563.141 290.631C562.423 287.9 559.627 286.268 556.896 286.986C554.165 287.704 552.534 290.5 553.252 293.23L604.376 487.689Z" fill="#D8D8D8"/>
<path d="M265.989 292.813C266.695 290.074 265.047 287.281 262.308 286.576C259.569 285.87 256.777 287.518 256.071 290.257L205.804 485.291C205.098 488.03 206.746 490.822 209.485 491.528C212.224 492.234 215.016 490.586 215.722 487.847L265.989 292.813Z" fill="#969696"/>
<path d="M315.95 486.941C316.656 489.68 319.448 491.328 322.187 490.622C324.926 489.916 326.574 487.124 325.868 484.385L275.602 289.351C274.896 286.612 272.103 284.964 269.364 285.67C266.626 286.375 264.978 289.168 265.683 291.907L315.95 486.941Z" fill="#969696"/>
<path d="M655.661 277.376H161.213C158.715 277.376 156.69 279.402 156.69 281.9V287.981C156.69 290.479 158.715 292.504 161.213 292.504H655.661C658.159 292.504 660.184 290.479 660.184 287.981V281.9C660.184 279.402 658.159 277.376 655.661 277.376Z" fill="#D8D8D8"/>
<path d="M192.551 293.245C193.269 290.515 191.637 287.719 188.907 287.001C186.176 286.283 183.38 287.915 182.662 290.645L131.538 485.104C130.82 487.834 132.452 490.63 135.183 491.348C137.913 492.066 140.709 490.434 141.427 487.703L192.551 293.245Z" fill="#D8D8D8"/>
<path d="M243.31 487.689C244.028 490.42 246.823 492.052 249.554 491.334C252.285 490.616 253.917 487.82 253.199 485.089L202.075 290.631C201.357 287.9 198.561 286.269 195.83 286.987C193.099 287.705 191.468 290.5 192.186 293.231L243.31 487.689Z" fill="#D8D8D8"/>
<g clip-path="url(#clip2)">
<path d="M453.048 461.988H408V492.945H453.048V461.988Z" fill="#B27363"/>
<path d="M453.048 461.988H408L416.201 455H444.847L453.048 461.988Z" fill="#98574C"/>
<path d="M435.318 467.244H425.731C425.061 467.244 424.518 467.787 424.518 468.457C424.518 469.127 425.061 469.67 425.731 469.67H435.318C435.988 469.67 436.531 469.127 436.531 468.457C436.531 467.787 435.988 467.244 435.318 467.244Z" fill="#98574C"/>
<path d="M430.582 455V462.162" stroke="#B27363" stroke-width="2.31017" stroke-miterlimit="10"/>
<path d="M433.528 487.92H427.521V492.887H433.528V487.92Z" fill="#98574C"/>
<path d="M441.786 476.254H419.262V482.491H441.786V476.254Z" fill="#FADB93"/>
<path d="M421.919 478.362H439.13" stroke="#B27363" stroke-width="1.03958" stroke-miterlimit="10"/>
<path d="M421.919 480.383H439.13" stroke="#B27363" stroke-width="1.03958" stroke-miterlimit="10"/>
</g>
<g clip-path="url(#clip3)">
<path d="M603.879 12.5807H582.291C580.605 12.5807 579.238 13.9474 579.238 15.6333V65.6232C579.238 67.3091 580.605 68.6758 582.291 68.6758H603.879C605.565 68.6758 606.931 67.3091 606.931 65.6232V15.6333C606.931 13.9474 605.565 12.5807 603.879 12.5807Z" fill="#AB8FE2"/>
<path d="M603.234 14.2105H583.148C581.927 14.2105 580.938 15.2 580.938 16.4207V64.9083C580.938 66.129 581.927 67.1186 583.148 67.1186H603.234C604.454 67.1186 605.444 66.129 605.444 64.9083V16.4207C605.444 15.2 604.454 14.2105 603.234 14.2105Z" fill="white"/>
<path d="M598.618 12.5463H587.622C586.884 12.5463 586.285 13.1446 586.285 13.8828V14.5388C586.285 15.277 586.884 15.8753 587.622 15.8753H598.618C599.356 15.8753 599.955 15.277 599.955 14.5388V13.8828C599.955 13.1446 599.356 12.5463 598.618 12.5463Z" fill="#AB8FE2"/>
<path d="M593.191 33.2281C597.122 33.2281 600.309 30.041 600.309 26.1096C600.309 22.1782 597.122 18.9912 593.191 18.9912C589.26 18.9912 586.073 22.1782 586.073 26.1096C586.073 30.041 589.26 33.2281 593.191 33.2281Z" fill="#E2E2E2"/>
<path d="M583.807 38.3277V35.3526H608.986V38.3277H583.807Z" fill="#F8DA96"/>
<path d="M596.654 43.4273H583.807V41.9394" stroke="black" stroke-width="0.0819291" stroke-miterlimit="10"/>
<path d="M596.654 52.1387H583.807V50.6514" stroke="black" stroke-width="0.0819291" stroke-miterlimit="10"/>
<path d="M583.807 40.4522H608.986V41.9394" stroke="black" stroke-width="0.0819291" stroke-miterlimit="10"/>
<path d="M583.807 54.2638H608.986V55.7511" stroke="black" stroke-width="0.0819291" stroke-miterlimit="10"/>
<path d="M608.986 45.5518H583.807V48.5263H608.986V45.5518Z" fill="#F8DA96"/>
<path d="M587.312 66.1629H599.07" stroke="#E2E2E2" stroke-width="0.424655" stroke-linecap="round" stroke-linejoin="round"/>
</g>
<path fill-rule="evenodd" clip-rule="evenodd" d="M193.366 223.775L173.339 182.166C172.518 171.744 168.74 168.402 166 161C164.861 159.159 162.314 156.716 161.595 163.331C160.877 169.946 161.819 171.3 159.426 171.783C157.032 172.267 158.343 170.526 155 171.783C152.772 172.621 153.486 176.585 163.607 189.083L171.855 228.119L193.366 223.775Z" fill="#915B3C"/>
<path fill-rule="evenodd" clip-rule="evenodd" d="M106.866 191.235L115.336 185.488C144.316 194.023 146.756 224.223 175.288 242.607C168.5 213.607 158 191.235 164.5 191.235L175.288 180.107C171.181 195.073 255.5 258.607 175.288 272.16C142.289 255.129 119.386 221.128 106.866 191.235Z" fill="#EAAA43"/>
<path fill-rule="evenodd" clip-rule="evenodd" d="M140.859 174.233C149.681 174.219 157.172 172.26 159.688 169.687C165.997 163.236 150.131 135.462 137.82 128.176C125.51 120.89 92.9298 134.18 104.361 156.457C108.328 164.189 115.446 168.924 123.314 171.542L138.334 214.988L162.29 200.493L140.859 174.233Z" fill="#915B3C"/>
<path fill-rule="evenodd" clip-rule="evenodd" d="M124.384 177.467C113.28 165.904 99.1951 161.965 96.8843 155.192C94.5736 148.419 99.3568 143.534 99.3568 143.534C99.3568 143.534 95.112 129.903 112.153 122.011C129.194 114.119 142.956 114.856 147.58 132.002C143.711 134.343 138.192 135.77 133.184 142.076C130.801 145.078 133.071 151.817 133.071 151.817L130.152 153.583C130.152 153.583 121.639 149.107 118.638 153.474C115.638 157.841 122.251 163.685 122.251 163.685L127.489 175.588L124.384 177.467Z" fill="#191847"/>
<path fill-rule="evenodd" clip-rule="evenodd" d="M52.8333 354.275C43.9967 354.275 36.8333 361.438 36.8333 370.275V483C36.8333 491.837 43.9967 499 52.8332 499H192.333C201.17 499 208.333 491.837 208.333 483V370.275C208.333 361.438 201.17 354.275 192.333 354.275H52.8333ZM73.4999 386.955C71.2908 386.955 69.4999 388.746 69.4999 390.955V462.32C69.4999 464.529 71.2908 466.32 73.4999 466.32H171.667C173.876 466.32 175.667 464.529 175.667 462.32V390.955C175.667 388.746 173.876 386.955 171.667 386.955H73.4999Z" fill="#C5CFD6"/>
<path fill-rule="evenodd" clip-rule="evenodd" d="M324.019 493.164C301.017 465.064 285.453 444.233 277.328 430.668C263.415 407.443 252.029 386.777 248.435 378.883C239.866 360.058 268.162 351.243 274.566 360.024C284.259 373.314 304.959 415.133 336.667 485.482L324.019 493.164Z" fill="#915B3C"/>
<path fill-rule="evenodd" clip-rule="evenodd" d="M276.884 484.994L234.076 377.194C224.92 357.542 269.135 344.625 275.864 353.77C291.14 374.533 327.449 456.439 332 462.625L276.884 484.994Z" fill="#2F3676"/>
<path fill-rule="evenodd" clip-rule="evenodd" d="M162.872 463.375C171.211 451.207 201.542 410.268 218.062 393.328C222.809 388.461 227.442 383.789 231.823 379.435C244.845 366.495 270.778 388.245 257.779 400.032C225.408 429.386 178.176 469.013 174.23 472.546C168.699 477.498 157.631 471.023 162.872 463.375Z" fill="#915B3C"/>
<path fill-rule="evenodd" clip-rule="evenodd" d="M168.061 458.073C167.375 457.123 166.034 456.9 165.134 457.65C163.227 459.239 160.255 461.874 159.216 463.675C157.638 466.409 155.522 472.18 155.522 472.18C158.692 474.012 212.508 505.095 212.508 505.095C212.508 505.095 218.969 499.031 214.521 495.681C210.073 492.331 207.18 490.031 207.18 490.031L187.41 462.781C187.079 462.325 186.437 462.232 185.991 462.576L181.768 465.829C181.768 465.829 176.144 465.338 173.374 463.738C171.597 462.711 169.404 459.932 168.061 458.073Z" fill="#E4E4E4"/>
<path fill-rule="evenodd" clip-rule="evenodd" d="M317.027 487.513C315.958 487.034 314.685 487.512 314.28 488.611C313.423 490.942 312.167 494.71 312.167 496.789C312.167 499.946 313.218 506.003 313.218 506.003C316.879 506.003 379.02 506.003 379.02 506.003C379.02 506.003 381.585 497.52 376.059 496.843C370.533 496.167 366.877 495.622 366.877 495.622L336.137 481.912C335.622 481.683 335.02 481.923 334.805 482.444L332.774 487.374C332.774 487.374 327.658 489.762 324.459 489.762C322.407 489.762 319.119 488.452 317.027 487.513Z" fill="#E4E4E4"/>
<path fill-rule="evenodd" clip-rule="evenodd" d="M218.672 382.578C218.672 382.578 165.303 373.88 147.177 370.683C112.734 364.607 102.69 346.064 108.628 305.608L172.09 305.608C184.687 309.247 277.362 350.624 277.362 350.624C288.478 356.144 286.408 372.421 284.376 377.783C284.252 378.111 228.158 474.155 228.158 474.155L176.243 441.07L218.77 386.477C218.77 386.477 220.455 383.082 218.672 382.578Z" fill="#5C63AB"/>
<path fill-rule="evenodd" clip-rule="evenodd" d="M86.0216 263.956C86.0216 263.956 74.3788 331.584 70.9599 338.523C69.2885 341.915 56.9184 352.221 48.3343 358.109C44.8888 360.472 46.3149 363.497 47.6162 364.3C58.201 370.834 65.1701 363.108 74.3316 358.844C84.3688 354.172 83.521 367.363 91.4777 363.802C89.0347 358.324 83.322 348.13 86.0216 341.437C87.8213 336.975 110.402 264.052 110.402 264.052L86.0216 263.956Z" fill="#915B3C"/>
<path fill-rule="evenodd" clip-rule="evenodd" d="M105.667 315.759C105.667 315.759 166.342 315.759 194.93 315.759C199.009 315.759 198.24 309.867 197.651 306.894C190.846 272.579 164.281 235.59 164.281 186.745L138.534 182.705C117.237 216.971 109.872 259.158 105.667 315.759Z" fill="#DDE3E9"/>
<path fill-rule="evenodd" clip-rule="evenodd" d="M86.0933 336.779H69.8333C68.0205 278.14 85.9942 238.912 103.744 214.717C101.262 213.616 99.1016 211.753 97.5 208.862C88.0892 191.875 91.4879 182.521 101.545 179.447C107.075 177.756 112.277 178.91 118.503 180.292C123.598 181.422 129.379 182.705 136.588 182.705C136.59 182.705 136.593 182.705 136.595 182.705C137.294 182.705 137.929 182.752 138.507 182.842L147.05 183.329C147.05 183.329 181.739 300.943 166.184 340.269H85.8334C85.9102 339.11 85.9969 337.946 86.0933 336.779Z" fill="#ECB255"/>
<path fill-rule="evenodd" clip-rule="evenodd" d="M95.6296 340.269C100.893 327.622 106.291 312.86 111.485 297.615C113.419 314.404 116.639 331.266 122 340.269H95.6296Z" fill="black" fill-opacity="0.1"/>
<path opacity="0.57" d="M244.614 278.813C249.334 278.813 253.161 274.97 253.161 270.23C253.161 265.489 249.334 261.646 244.614 261.646C239.893 261.646 236.066 265.489 236.066 270.23C236.066 274.97 239.893 278.813 244.614 278.813Z" fill="#FADB93"/>
<path opacity="0.57" d="M264.894 269.514C269.615 269.514 273.442 265.671 273.442 260.931C273.442 256.19 269.615 252.347 264.894 252.347C260.173 252.347 256.347 256.19 256.347 260.931C256.347 265.671 260.173 269.514 264.894 269.514Z" fill="#FADB93"/>
<path d="M241.422 277.833C246.143 277.833 249.97 273.99 249.97 269.25C249.97 264.509 246.143 260.666 241.422 260.666C236.701 260.666 232.874 264.509 232.874 269.25C232.874 273.99 236.701 277.833 241.422 277.833Z" stroke="black" stroke-width="0.48853" stroke-linecap="round" stroke-linejoin="round"/>
<path d="M261.703 268.534C266.423 268.534 270.25 264.691 270.25 259.95C270.25 255.21 266.423 251.367 261.703 251.367C256.982 251.367 253.155 255.21 253.155 259.95C253.155 264.691 256.982 268.534 261.703 268.534Z" stroke="black" stroke-width="0.48853" stroke-linecap="round" stroke-linejoin="round"/>
<path d="M232.868 269.25L214 263.201" stroke="black" stroke-width="0.48853" stroke-linecap="round" stroke-linejoin="round"/>
<path d="M248.981 265.226L253.97 263.62" stroke="black" stroke-width="0.48853" stroke-linecap="round" stroke-linejoin="round"/>
<path d="M255.454 254.024L236.58 247.975" stroke="black" stroke-width="0.48853" stroke-linecap="round" stroke-linejoin="round"/>
<g clip-path="url(#clip4)">
<path d="M93.0978 123.244C92.5169 123.93 91.4839 124.018 90.7987 123.438L86.0644 120.384C81.821 122.231 76.8429 121.509 73.3068 118.514C68.1754 114.168 67.5399 106.452 71.8902 101.316C76.2405 96.1795 83.9558 95.5364 89.0871 99.8825C92.6232 102.877 94.155 107.669 93.0312 112.158L96.8227 116.325C97.5079 116.906 97.5928 117.937 97.012 118.623L93.0978 123.244Z" fill="#FFE19C"/>
<path opacity="0.28" d="M77.4215 117.549C77.193 113.529 74.0604 110.682 72.5203 107.083C71.7563 105.452 71.6251 103.812 71.9698 102.282C69.0244 107.305 70.0171 113.877 74.6049 117.763C75.0943 118.177 75.6148 118.547 76.1532 118.874C76.9184 118.827 77.5596 118.332 77.4215 117.549Z" fill="white"/>
<path d="M72.2841 100.876C72.6481 100.734 73.0233 100.607 73.4181 100.509C77.8755 99.3078 82.6808 101.083 85.4712 104.785C87.226 107.227 88.8091 110.1 88.2398 113.255C88.0251 114.412 89.5597 114.18 89.4197 115.021C89.1291 117.302 87.6539 118.913 86.1138 120.419L90.797 123.44C91.4822 124.02 92.5134 123.934 93.0961 123.247L97.0103 118.625C97.5911 117.939 97.5062 116.908 96.821 116.328L93.0295 112.16C94.1533 107.671 92.6215 102.88 89.0854 99.8846C84.1058 95.6634 76.6949 96.1456 72.2841 100.876Z" fill="#F1C382"/>
<path d="M87.3964 121.244L90.7987 123.438C91.4839 124.018 92.5152 123.932 93.0978 123.244L97.012 118.623C97.5928 117.937 97.5079 116.906 96.8227 116.325L94.0983 113.331L87.3964 121.244Z" fill="#6A69B0"/>
<path d="M95.368 114.728L94.0983 113.331L87.3964 121.244L88.9839 122.266L95.368 114.728Z" fill="#7D76B7"/>
<path d="M90.4264 123.198L90.7988 123.438C91.4839 124.018 92.5152 123.932 93.0978 123.244L97.012 118.623C97.5929 117.937 97.5079 116.906 96.8228 116.325L96.5246 115.998L90.4264 123.198Z" fill="#7D76B7"/>
<path d="M90.1312 118.015L81.3723 111.939" stroke="#FF9B21" stroke-width="0.989856" stroke-miterlimit="10"/>
<path d="M91.3635 116.56L83.9288 108.92" stroke="#FF9B21" stroke-width="0.989856" stroke-miterlimit="10"/>
<path d="M79.8745 113.863C79.3601 113.428 79.2988 112.66 79.7331 112.147C80.1692 111.632 80.937 111.57 81.4493 112.004C81.9616 112.438 82.025 113.208 81.5907 113.72C81.1546 114.235 80.3868 114.297 79.8745 113.863Z" stroke="#FF9B21" stroke-width="0.989856" stroke-miterlimit="10"/>
<path d="M84.0058 108.986C83.4914 108.55 83.4301 107.782 83.8645 107.269C84.2988 106.756 85.0684 106.692 85.5807 107.126C86.093 107.56 86.1564 108.33 85.7221 108.842C85.2877 109.355 84.5181 109.419 84.0058 108.986Z" stroke="#FF9B21" stroke-width="0.989856" stroke-miterlimit="10"/>
<path d="M81.0113 110.638C80.4969 110.202 80.4356 109.434 80.8699 108.921C81.3043 108.409 82.0756 108.342 82.5879 108.776C83.1002 109.21 83.1636 109.98 82.7276 110.495C82.2932 111.008 81.5236 111.072 81.0113 110.638Z" stroke="#FF9B21" stroke-width="0.989856" stroke-miterlimit="10"/>
<path d="M81.4493 112.004L84.0058 108.986" stroke="#FF9B21" stroke-width="0.989856" stroke-miterlimit="10"/>
</g>
<g clip-path="url(#clip5)">
<path d="M477.215 114.998H300.71C298.173 114.998 296.115 117.055 296.115 119.593V243.563C296.115 246.101 298.173 248.158 300.71 248.158H477.215C479.753 248.158 481.811 246.101 481.811 243.563V119.593C481.811 117.055 479.753 114.998 477.215 114.998Z" fill="#474747"/>
<path d="M300.71 114.998H477.215C478.434 114.998 479.603 115.482 480.465 116.344C481.327 117.206 481.811 118.374 481.811 119.593V228.86H296.115V119.593C296.115 118.374 296.599 117.206 297.461 116.344C298.323 115.482 299.492 114.998 300.71 114.998V114.998Z" fill="#474747"/>
<path d="M474.306 122.074H302.119V220.711H474.306V122.074Z" fill="white"/>
<path d="M404.981 277.535H371.927C371.001 277.535 370.087 277.338 369.245 276.956C368.402 276.574 367.651 276.017 367.041 275.321C366.431 274.626 365.976 273.808 365.708 272.923C365.439 272.038 365.362 271.106 365.483 270.189L368.378 248.158H408.69L411.431 270.244C411.543 271.158 411.46 272.085 411.187 272.963C410.914 273.842 410.457 274.653 409.848 275.342C409.238 276.031 408.489 276.583 407.65 276.961C406.811 277.339 405.901 277.535 404.981 277.535Z" fill="#E2E2E2"/>
<path opacity="0.8" d="M388.963 243.441C391.805 243.441 394.109 241.137 394.109 238.295C394.109 235.452 391.805 233.148 388.963 233.148C386.121 233.148 383.817 235.452 383.817 238.295C383.817 241.137 386.121 243.441 388.963 243.441Z" fill="#73E5E2"/>
<path opacity="0.8" d="M498 127.971H392.072V174.931H498V127.971Z" fill="#7CE5E0"/>
<path d="M284 183.294H384.996" stroke="#AB8FE2" stroke-width="0.75479" stroke-miterlimit="10"/>
<path d="M284 191.12H384.996" stroke="#AB8FE2" stroke-width="0.75479" stroke-miterlimit="10"/>
<path d="M284 199.054H384.996" stroke="#AB8FE2" stroke-width="0.75479" stroke-miterlimit="10"/>
<path d="M284 206.988H384.996" stroke="#AB8FE2" stroke-width="0.75479" stroke-miterlimit="10"/>
<path d="M287.86 136.548C289.162 136.548 290.218 135.492 290.218 134.189C290.218 132.887 289.162 131.831 287.86 131.831C286.557 131.831 285.501 132.887 285.501 134.189C285.501 135.492 286.557 136.548 287.86 136.548Z" fill="#FADB93"/>
<path d="M294.507 136.548C295.81 136.548 296.866 135.492 296.866 134.189C296.866 132.887 295.81 131.831 294.507 131.831C293.204 131.831 292.148 132.887 292.148 134.189C292.148 135.492 293.204 136.548 294.507 136.548Z" fill="#FADB93"/>
<path d="M301.154 136.548C302.457 136.548 303.513 135.492 303.513 134.189C303.513 132.887 302.457 131.831 301.154 131.831C299.852 131.831 298.796 132.887 298.796 134.189C298.796 135.492 299.852 136.548 301.154 136.548Z" fill="#FADB93"/>
<path d="M307.802 136.548C309.104 136.548 310.16 135.492 310.16 134.189C310.16 132.887 309.104 131.831 307.802 131.831C306.499 131.831 305.443 132.887 305.443 134.189C305.443 135.492 306.499 136.548 307.802 136.548Z" fill="#FADB93"/>
<path d="M314.449 136.548C315.752 136.548 316.808 135.492 316.808 134.189C316.808 132.887 315.752 131.831 314.449 131.831C313.146 131.831 312.09 132.887 312.09 134.189C312.09 135.492 313.146 136.548 314.449 136.548Z" fill="#FADB93"/>
<path d="M321.096 136.548C322.399 136.548 323.455 135.492 323.455 134.189C323.455 132.887 322.399 131.831 321.096 131.831C319.793 131.831 318.737 132.887 318.737 134.189C318.737 135.492 319.793 136.548 321.096 136.548Z" fill="#FADB93"/>
<path d="M287.86 150.272C289.162 150.272 290.218 149.216 290.218 147.913C290.218 146.61 289.162 145.554 287.86 145.554C286.557 145.554 285.501 146.61 285.501 147.913C285.501 149.216 286.557 150.272 287.86 150.272Z" fill="#FADB93"/>
<path d="M294.507 150.272C295.81 150.272 296.866 149.216 296.866 147.913C296.866 146.61 295.81 145.554 294.507 145.554C293.204 145.554 292.148 146.61 292.148 147.913C292.148 149.216 293.204 150.272 294.507 150.272Z" fill="#FADB93"/>
<path d="M301.154 150.272C302.457 150.272 303.513 149.216 303.513 147.913C303.513 146.61 302.457 145.554 301.154 145.554C299.852 145.554 298.796 146.61 298.796 147.913C298.796 149.216 299.852 150.272 301.154 150.272Z" fill="#FADB93"/>
<path d="M307.802 150.272C309.104 150.272 310.16 149.216 310.16 147.913C310.16 146.61 309.104 145.554 307.802 145.554C306.499 145.554 305.443 146.61 305.443 147.913C305.443 149.216 306.499 150.272 307.802 150.272Z" fill="#FADB93"/>
<path d="M314.449 150.272C315.752 150.272 316.808 149.216 316.808 147.913C316.808 146.61 315.752 145.554 314.449 145.554C313.146 145.554 312.09 146.61 312.09 147.913C312.09 149.216 313.146 150.272 314.449 150.272Z" fill="#FADB93"/>
<path d="M321.096 150.272C322.399 150.272 323.455 149.216 323.455 147.913C323.455 146.61 322.399 145.554 321.096 145.554C319.793 145.554 318.737 146.61 318.737 147.913C318.737 149.216 319.793 150.272 321.096 150.272Z" fill="#FADB93"/>
<path d="M291.291 143.41C292.593 143.41 293.649 142.354 293.649 141.051C293.649 139.748 292.593 138.692 291.291 138.692C289.988 138.692 288.932 139.748 288.932 141.051C288.932 142.354 289.988 143.41 291.291 143.41Z" fill="#FADB93"/>
<path d="M297.938 143.41C299.241 143.41 300.297 142.354 300.297 141.051C300.297 139.748 299.241 138.692 297.938 138.692C296.635 138.692 295.579 139.748 295.579 141.051C295.579 142.354 296.635 143.41 297.938 143.41Z" fill="#FADB93"/>
<path d="M304.585 143.41C305.888 143.41 306.944 142.354 306.944 141.051C306.944 139.748 305.888 138.692 304.585 138.692C303.282 138.692 302.226 139.748 302.226 141.051C302.226 142.354 303.282 143.41 304.585 143.41Z" fill="#FADB93"/>
<path d="M311.232 143.41C312.535 143.41 313.591 142.354 313.591 141.051C313.591 139.748 312.535 138.692 311.232 138.692C309.93 138.692 308.874 139.748 308.874 141.051C308.874 142.354 309.93 143.41 311.232 143.41Z" fill="#FADB93"/>
<path d="M317.88 143.41C319.182 143.41 320.238 142.354 320.238 141.051C320.238 139.748 319.182 138.692 317.88 138.692C316.577 138.692 315.521 139.748 315.521 141.051C315.521 142.354 316.577 143.41 317.88 143.41Z" fill="#FADB93"/>
<path d="M324.527 143.41C325.83 143.41 326.886 142.354 326.886 141.051C326.886 139.748 325.83 138.692 324.527 138.692C323.224 138.692 322.168 139.748 322.168 141.051C322.168 142.354 323.224 143.41 324.527 143.41Z" fill="#FADB93"/>
<path d="M291.291 157.133C292.593 157.133 293.649 156.077 293.649 154.775C293.649 153.472 292.593 152.416 291.291 152.416C289.988 152.416 288.932 153.472 288.932 154.775C288.932 156.077 289.988 157.133 291.291 157.133Z" fill="#FADB93"/>
<path d="M297.938 157.133C299.241 157.133 300.297 156.077 300.297 154.775C300.297 153.472 299.241 152.416 297.938 152.416C296.635 152.416 295.579 153.472 295.579 154.775C295.579 156.077 296.635 157.133 297.938 157.133Z" fill="#FADB93"/>
<path d="M304.585 157.133C305.888 157.133 306.944 156.077 306.944 154.775C306.944 153.472 305.888 152.416 304.585 152.416C303.282 152.416 302.226 153.472 302.226 154.775C302.226 156.077 303.282 157.133 304.585 157.133Z" fill="#FADB93"/>
<path d="M311.232 157.133C312.535 157.133 313.591 156.077 313.591 154.775C313.591 153.472 312.535 152.416 311.232 152.416C309.93 152.416 308.874 153.472 308.874 154.775C308.874 156.077 309.93 157.133 311.232 157.133Z" fill="#FADB93"/>
<path d="M317.88 157.133C319.182 157.133 320.238 156.077 320.238 154.775C320.238 153.472 319.182 152.416 317.88 152.416C316.577 152.416 315.521 153.472 315.521 154.775C315.521 156.077 316.577 157.133 317.88 157.133Z" fill="#FADB93"/>
<path d="M324.527 157.133C325.83 157.133 326.886 156.077 326.886 154.775C326.886 153.472 325.83 152.416 324.527 152.416C323.224 152.416 322.168 153.472 322.168 154.775C322.168 156.077 323.224 157.133 324.527 157.133Z" fill="#FADB93"/>
</g>
</g>
<defs>
<clipPath id="clip0">
<rect width="686.495" height="535" fill="white"/>
</clipPath>
<clipPath id="clip1">
<rect x="479.149" y="331.247" width="117.829" height="159.617" fill="white"/>
</clipPath>
<clipPath id="clip2">
<rect x="408" y="455" width="45.0484" height="37.9446" fill="white"/>
</clipPath>
<clipPath id="clip3">
<rect x="579.238" y="12.5463" width="29.7884" height="56.1308" fill="white"/>
</clipPath>
<clipPath id="clip4">
<rect x="64" y="110.632" width="24.4164" height="30.3556" transform="rotate(-49.7367 64 110.632)" fill="white"/>
</clipPath>
<clipPath id="clip5">
<rect x="284" y="114.998" width="214" height="162.537" fill="white"/>
</clipPath>
</defs>
</svg>
