<svg width="40" height="40" viewBox="0 0 40 40" fill="none" xmlns="http://www.w3.org/2000/svg">
<path opacity="0.9" d="M19.9998 40C16.711 39.9999 13.473 39.1889 10.5725 37.6386C7.67197 36.0883 5.19854 33.8467 3.37123 31.1123C1.54392 28.3779 0.419128 25.235 0.0964818 21.9621C-0.226164 18.6892 0.263297 15.3872 1.5215 12.3486C2.7797 9.30999 4.76782 6.62856 7.30978 4.54178C9.85174 2.455 12.8691 1.02727 16.0946 0.385045C19.3201 -0.257183 22.6542 -0.0940931 25.8016 0.859879C28.949 1.81385 31.8126 3.52926 34.1387 5.85417L31.1236 8.89045C28.6106 6.37907 25.3224 4.79095 21.793 4.38399C18.2636 3.97703 14.7003 4.77513 11.6817 6.64868C8.66306 8.52224 6.36645 11.3612 5.16481 14.7046C3.96316 18.048 3.92706 21.6994 5.06234 25.0658C6.19762 28.4323 8.43763 31.3162 11.4186 33.2491C14.3995 35.1819 17.9464 36.0504 21.4831 35.7133C25.0199 35.3762 28.3388 33.8534 30.901 31.3923C33.4632 28.9311 35.1181 25.676 35.597 22.1557H22.1203V30.0247H17.8934V17.8725H40V19.9859C39.9963 25.2891 37.8879 30.374 34.138 34.1239C30.388 37.8738 25.3031 39.9822 19.9998 39.9859V40Z" fill="black"/>
</svg>
