<svg width="40" height="41" viewBox="0 0 40 41" fill="none" xmlns="http://www.w3.org/2000/svg">
<circle cx="23" cy="32" r="8" fill="#FBDC8E"/>
<path d="M19.5 0C13.25 0 8.25 5.07812 8.25 11.25C8.25 17.1094 12.625 21.7969 18.25 22.4219V38.5156L19.1094 39.8438C19.2656 40.0781 19.6562 40.0781 19.8125 39.8438L20.75 38.5156V22.4219C26.2969 21.7969 30.75 17.1094 30.75 11.25C30.75 5.07812 25.6719 0 19.5 0ZM19.5 20C14.6562 20 10.75 16.0938 10.75 11.25C10.75 6.48438 14.6562 2.5 19.5 2.5C24.2656 2.5 28.25 6.48438 28.25 11.25C28.25 16.0938 24.2656 20 19.5 20ZM19.5 5C15.9844 5 13.25 7.8125 13.25 11.25C13.25 11.9531 13.7969 12.5 14.5 12.5C15.125 12.5 15.75 11.9531 15.75 11.25C15.75 9.21875 17.3906 7.5 19.5 7.5C20.125 7.5 20.75 6.95312 20.75 6.25C20.75 5.625 20.125 5 19.5 5Z" fill="#73E5E2"/>
</svg>
