<svg width="691" height="461" viewBox="0 0 691 461" fill="none" xmlns="http://www.w3.org/2000/svg">
<g clip-path="url(#clip0)">
<path opacity="0.04" d="M192.764 9.78456C183.006 6.01236 172.881 3.27045 162.555 1.60344C124.053 -4.49081 81.9119 6.80547 55.6451 35.583C41.1297 51.5067 32.067 71.6344 24.7262 91.9133C8.97224 135.39 -0.0451435 180.378 0.000169962 226.501C0.173969 253.409 10.8027 279.193 29.6352 298.392C56.1587 325.158 95.3851 335.23 132.98 337.211C170.575 339.192 208.291 334.262 245.886 336.288C281.457 338.209 316.877 346.36 352.388 343.638C387.899 340.916 425.539 324.19 439.586 291.405C454.812 255.838 442.215 193.595 411.945 169.581C377.794 142.497 335.139 128.131 302.407 99.1871C288.028 86.4995 276.231 71.1807 262.879 57.4195C243.047 37.0197 219.166 19.9013 192.764 9.78456Z" fill="black"/>
<g clip-path="url(#clip1)">
<path d="M43.8723 458.784C43.8723 458.784 49.8177 217.429 347.649 217.429C645.48 217.429 647.982 459.89 647.982 459.89L43.8723 458.784Z" fill="#ECC9BF"/>
<path d="M552.906 314.314H524.534V459.89H552.906V314.314Z" fill="#7A98C5"/>
<path d="M561.819 444.587H516.355C508.796 444.587 502.665 450.719 502.665 458.277V459.901H575.499V458.277C575.51 450.719 569.378 444.587 561.819 444.587Z" fill="#7A98C5"/>
<path d="M544.821 314.314H516.448V459.89H544.821V314.314Z" fill="#2F3052"/>
<path d="M553.744 444.587H508.279C500.721 444.587 494.589 450.719 494.589 458.277V459.901H567.424V458.277C567.424 450.719 561.302 444.587 553.744 444.587Z" fill="#2F3052"/>
<path d="M516.448 314.314V333.164L552.906 320.87V314.314H516.448Z" fill="#ACACAC"/>
<path d="M254.155 314.314H225.783V459.89H254.155V314.314Z" fill="#7A98C5"/>
<path d="M263.079 444.587H217.614C210.055 444.587 203.924 450.718 203.924 458.277V459.9H276.758V458.277C276.758 450.718 270.637 444.587 263.079 444.587Z" fill="#7A98C5"/>
<path d="M246.069 314.314H217.697V459.89H246.069V314.314Z" fill="#2F3052"/>
<path d="M254.993 444.587H209.528C201.97 444.587 195.838 450.718 195.838 458.277V459.9H268.672V458.277C268.683 450.718 262.551 444.587 254.993 444.587Z" fill="#2F3052"/>
<path d="M217.697 314.314V333.164L254.155 320.87V314.314H217.697Z" fill="#ACACAC"/>
<path d="M496.109 198.28H570.091C576.099 198.28 581.641 201.516 584.588 206.748L606.26 245.678C608.939 250.424 605.506 256.297 600.057 256.297H521.256L496.109 198.28Z" fill="#2F3052"/>
<path d="M532.237 198.28L564.818 256.297H538.72L507.07 198.28H532.237Z" fill="#ACACAC"/>
<path d="M548.533 212.477L552.214 218.96H571.725L567.951 212.477H548.533Z" fill="#7A98C5"/>
<path d="M553.372 221.089L554.457 223.023H573.979L572.79 221.089H553.372Z" fill="#F3E2D9"/>
<path d="M555.347 224.574L556.432 226.508H575.954L574.765 224.574H555.347Z" fill="#F3E2D9"/>
<path d="M556.97 228.038L558.056 229.971H577.578L576.388 228.038H556.97Z" fill="#F3E2D9"/>
<path d="M561.882 236.413L562.967 238.347H582.479L581.29 236.413H561.882Z" fill="#F3E2D9"/>
<path d="M563.856 239.898L564.942 241.831H584.454L583.265 239.898H563.856Z" fill="#F3E2D9"/>
<path d="M558.893 231.574L560.568 234.562H590.73L588.889 231.574H558.893Z" fill="#7A98C5"/>
<path d="M571.725 212.476L581.62 229.61H588.352L578.363 212.476H571.725Z" fill="#7A98C5"/>
<path d="M584.454 236.413L587.711 241.831H594.442L591.082 236.413H584.454Z" fill="#7A98C5"/>
<path d="M218.1 314.314H567.258V292.311C567.258 284.153 565.232 276.119 561.364 268.932L528.752 208.351C525.413 202.147 518.929 198.269 511.888 198.269H218.1V314.314Z" fill="#7A98C5"/>
<path d="M191.454 314.314H276.19V292.311C276.19 284.153 274.163 276.118 270.296 268.932L237.518 208.04C234.282 202.033 228.006 198.28 221.181 198.28H191.454V314.314V314.314Z" fill="#2F3052"/>
<path d="M313.755 252.73L294.191 217.967H480.63L505.446 259.761" stroke="#2F3052" stroke-width="1.09779" stroke-miterlimit="10"/>
<path d="M303.259 234.045H490.35" stroke="#2F3052" stroke-width="2.19547" stroke-miterlimit="10"/>
<path d="M310.373 246.712H497.774L505.446 259.761L313.755 252.73L310.373 246.712Z" fill="#2F3052"/>
<path d="M300.871 157.23H291.896V198.28H300.871V157.23Z" fill="#7A98C5"/>
<path d="M291.896 157.231H269.469V198.28H291.896V157.231Z" fill="#2F3052"/>
<path d="M285.371 157.23H276.396V198.28H285.371V157.23Z" fill="#7A98C5"/>
<path d="M276.396 157.231H253.969V198.28H276.396V157.231Z" fill="#2F3052"/>
<path d="M269.675 157.23H260.7V198.28H269.675V157.23Z" fill="#7A98C5"/>
<path d="M260.7 157.231H238.273V198.28H260.7V157.231Z" fill="#2F3052"/>
<path d="M252.945 157.23H243.97V198.28H252.945V157.23Z" fill="#7A98C5"/>
<path d="M243.97 157.231H221.543V198.28H243.97V157.231Z" fill="#2F3052"/>
<path d="M250.784 163.61C250.784 164.892 249.74 165.937 248.458 165.937C247.176 165.937 246.131 164.892 246.131 163.61C246.131 162.328 247.176 161.284 248.458 161.284C249.74 161.284 250.784 162.328 250.784 163.61Z" fill="#FDFFFF"/>
<path d="M267.504 163.61C267.504 164.892 266.46 165.936 265.178 165.936C263.895 165.936 262.851 164.892 262.851 163.61C262.851 162.328 263.895 161.283 265.178 161.283C266.47 161.283 267.504 162.328 267.504 163.61Z" fill="#FDFFFF"/>
<path d="M283.21 163.61C283.21 164.892 282.166 165.936 280.884 165.936C279.602 165.936 278.557 164.892 278.557 163.61C278.557 162.328 279.602 161.283 280.884 161.283C282.166 161.283 283.21 162.328 283.21 163.61Z" fill="#FDFFFF"/>
<path d="M296.321 165.936C297.606 165.936 298.648 164.895 298.648 163.61C298.648 162.325 297.606 161.283 296.321 161.283C295.037 161.283 293.995 162.325 293.995 163.61C293.995 164.895 295.037 165.936 296.321 165.936Z" fill="#FDFFFF"/>
<path d="M300.871 192.324H221.543V198.28H300.871V192.324Z" fill="#ACACAC"/>
<path d="M330.598 398.388C330.598 417.693 346.253 433.348 365.558 433.348H442.228V398.388H330.598Z" fill="white"/>
<path d="M313.359 252.571H491.227C491.227 252.571 516.001 254.556 516.001 286.259C516.001 317.971 516.001 398.229 516.001 398.229H330.203V287.872C330.203 277.47 326.419 267.419 319.543 259.602L313.359 252.571Z" fill="#FDFFFF"/>
<path d="M428.662 345.81C445.091 345.81 458.41 332.491 458.41 316.062C458.41 299.632 445.091 286.314 428.662 286.314C412.233 286.314 398.914 299.632 398.914 316.062C398.914 332.491 412.233 345.81 428.662 345.81Z" fill="#73E5E2"/>
<path d="M409.037 379.177C425.466 379.177 438.785 365.858 438.785 349.429C438.785 332.999 425.466 319.681 409.037 319.681C392.608 319.681 379.289 332.999 379.289 349.429C379.289 365.858 392.608 379.177 409.037 379.177Z" fill="#F2686E"/>
<path d="M451.317 379.177C467.746 379.177 481.065 365.858 481.065 349.429C481.065 332.999 467.746 319.681 451.317 319.681C434.887 319.681 421.569 332.999 421.569 349.429C421.569 365.858 434.887 379.177 451.317 379.177Z" fill="#FBDC8E"/>
<path d="M429.158 398.388C429.158 398.388 412.718 396.941 412.718 414.322C412.718 431.703 398.614 433.347 398.614 433.347H442.238V398.388H429.158Z" fill="#5F70A1"/>
<path d="M429.158 398.388H616.125C616.125 398.388 633.558 399.308 633.558 418.479V441.144H442.228V417.259C442.228 417.269 442.135 398.388 429.158 398.388Z" fill="#9ABDE7"/>
<path d="M676.096 441.144C676.096 441.144 678.392 455.248 655.437 459.714H474.044L496.109 441.144V421.963H676.158L676.096 441.144Z" fill="white"/>
<path d="M442.228 441.144C442.228 451.401 450.541 459.714 460.799 459.714H477.539C487.796 459.714 496.109 451.401 496.109 441.144H442.228Z" fill="#9ABDE7"/>
<path d="M70.3952 439.262H86.1532L112.22 453.2L67.4069 452.673L70.3952 439.262Z" fill="#101010"/>
<path d="M67.2509 458.566L67.406 452.673L112.219 453.2L112.064 459.104L67.2509 458.566Z" fill="white"/>
<path d="M97.0505 444.401L91.8806 445.807" stroke="white" stroke-width="0.991598" stroke-miterlimit="10" stroke-linecap="round" stroke-linejoin="round"/>
<path d="M92.0046 441.805L86.8347 443.222" stroke="white" stroke-width="0.991598" stroke-miterlimit="10" stroke-linecap="round" stroke-linejoin="round"/>
<path d="M90.1228 417.052H74.0546L70.3942 439.262H86.4625L90.1228 417.052Z" fill="#FDFFFF"/>
<path d="M119.106 439.748H134.864L160.921 453.686L116.118 453.159L119.106 439.748Z" fill="#101010"/>
<path d="M115.962 459.053L116.117 453.159L160.92 453.686L160.765 459.58L115.962 459.053Z" fill="white"/>
<path d="M145.762 444.887L140.592 446.293" stroke="white" stroke-width="0.991598" stroke-miterlimit="10" stroke-linecap="round" stroke-linejoin="round"/>
<path d="M140.706 442.292L135.546 443.708" stroke="white" stroke-width="0.991598" stroke-miterlimit="10" stroke-linecap="round" stroke-linejoin="round"/>
<path d="M134.905 417.528H118.847L119.105 439.748H135.174L134.905 417.528Z" fill="#FDFFFF"/>
<path d="M132.671 250.135C132.671 250.135 134.005 252.978 136.435 279.118C136.931 284.494 137.252 291.98 137.19 297.378L138.431 431.569L115.445 431.321L111.071 289.561L92.2837 432.727L68.3158 431.859L83.288 254.209L94.1139 252.327L132.671 250.135Z" fill="#1B1C3D"/>
<path d="M111.082 289.561L120.905 285.032" stroke="#7B7B7B" stroke-width="1.14794" stroke-miterlimit="10" stroke-linecap="round" stroke-linejoin="round"/>
<path d="M131.327 180.206C131.327 180.206 144.831 188.25 147.458 210.047L128.174 220.635L131.327 180.206Z" fill="#FDFFFF"/>
<path d="M105.529 173.402C98.8807 173.971 92.3252 175.429 86.1316 177.911C84.6116 178.521 83.1227 179.182 81.7475 179.896C77.4461 182.15 78.7282 187.02 79.2762 191.983L81.8095 259.172L136.022 257.797L138.172 194.196C138.648 187.268 134.553 180.899 128.215 178.665C121.112 176.163 112.447 173.361 108.673 173.134L105.529 173.402Z" fill="#FDFFFF"/>
<path d="M136.59 217.264L137.935 197.587" stroke="#7A98C5" stroke-width="1.01745" stroke-miterlimit="10"/>
<path d="M125.02 177.559C125.02 177.559 115.042 173.65 108.673 173.133C108.673 173.133 99.9664 173.505 93.9899 175.346C93.9899 175.346 97.309 182.429 112.581 183.587C127.853 184.745 125.02 177.559 125.02 177.559Z" fill="#B28B67"/>
<path d="M171.167 210.119L159.845 262.749C159.452 264.559 157.839 265.841 155.988 265.81L113.863 265.065C111.413 265.024 109.614 262.739 110.151 260.34L121.99 207.72C122.394 205.931 123.996 204.66 125.837 204.701L167.455 205.435C169.885 205.476 171.684 207.731 171.167 210.119Z" fill="#131314"/>
<path d="M170.009 206.448L172.501 209.013L113.501 266.285L110.834 263.525L170.009 206.448Z" fill="#131314"/>
<path d="M173.411 212.414L162.089 265.044C161.696 266.854 160.083 268.136 158.232 268.105L116.107 267.361C113.656 267.319 111.857 265.034 112.395 262.635L124.234 210.015C124.637 208.227 126.24 206.955 128.081 206.996L169.699 207.73C172.129 207.772 173.917 210.026 173.411 212.414Z" fill="#404366"/>
<path d="M150.229 231.646C150.487 234.118 148.698 236.33 146.227 236.599C143.756 236.858 141.543 235.069 141.274 232.598C141.016 230.126 142.805 227.914 145.276 227.645C147.757 227.386 149.97 229.185 150.229 231.646Z" fill="#9297B7"/>
<path d="M174.166 228.017L170.991 240.86C170.609 242.431 169.182 243.517 167.569 243.486C162.812 243.403 159.286 239.06 160.176 234.387L160.993 230.106C161.644 226.673 164.539 224.119 168.024 223.892L170.578 223.726C172.915 223.582 174.724 225.743 174.166 228.017Z" fill="#B28B67"/>
<path d="M51.5342 211.505L77.0221 250.434L70.1564 258.231L42.0215 229.631L51.5342 211.505Z" fill="#B28B67"/>
<path d="M100.452 252.213L89.5437 246.464L90.6191 243.982C91.012 243.083 90.7638 242.018 90.0297 241.387C89.2645 240.735 88.1788 240.715 87.393 241.345L76.6498 250.093L70.1564 258.231C76.0501 263.463 79.8966 263.4 82.1197 262.387C82.3782 262.48 82.6367 262.573 82.8952 262.656L91.9529 265.355C92.7905 265.727 93.7624 265.365 94.176 264.517C94.4759 263.907 94.5793 262.925 92.8318 262.005L94.5793 262.925C95.4685 263.318 96.4921 262.925 96.9057 262.015C97.2987 261.219 96.8127 260.154 95.789 259.471L97.1229 260.019C98.0948 260.454 99.2322 259.957 99.5941 258.892C99.9043 257.972 99.439 256.959 98.6015 256.514L96.6783 255.501L98.9634 256.08C100.018 256.462 101.197 255.883 101.538 254.736C101.838 253.733 101.331 252.678 100.452 252.213Z" fill="#B28B67"/>
<path d="M97.2677 255.77L90.8156 252.616" stroke="#171717" stroke-width="0.428383" stroke-miterlimit="10" stroke-linecap="round" stroke-linejoin="round"/>
<path d="M95.5305 259.337L89.3162 256.649" stroke="#171717" stroke-width="0.428383" stroke-miterlimit="10" stroke-linecap="round" stroke-linejoin="round"/>
<path d="M93.4212 262.232L88.1478 260.071" stroke="#171717" stroke-width="0.428383" stroke-miterlimit="10" stroke-linecap="round" stroke-linejoin="round"/>
<path d="M87.2896 200.772L54.874 229.775C51.8444 232.949 47.0777 233.435 43.5104 230.933C39.0229 227.78 38.2474 221.234 41.8767 217.057L72.3588 186.161C75.9985 181.963 82.1714 181.436 86.4211 184.983C91.1671 188.932 91.5704 196.284 87.2896 200.772Z" fill="#B28B67"/>
<path d="M88.0031 177.186C88.0031 177.186 74.9851 179.823 58.8239 199.872L72.669 218.443L93.7624 202.778L88.0031 177.186Z" fill="#FDFFFF"/>
<path d="M79.8242 213.138L92.0563 204.05" stroke="#7A98C5" stroke-width="1.01745" stroke-miterlimit="10"/>
<path d="M119.405 156.631L118.93 177.321L103.379 175.977L107.215 142.341L119.405 156.631Z" fill="#B28B67"/>
<path d="M119.126 168.749L108.031 153.984L119.333 157.747L119.126 168.749Z" fill="#1E0B02"/>
<path d="M126.695 121.279C132.01 121.992 134.605 127.627 135.132 132.673C135.742 138.494 136.28 147.511 134.471 151.936C131.669 158.771 125.733 162.773 116.748 160.343C116.748 160.343 103.833 158.832 102.313 142.981C100.503 124.214 112.159 118.152 126.695 121.279Z" fill="#B28B67"/>
<path fill-rule="evenodd" clip-rule="evenodd" d="M135.275 123.785C129.846 125.287 128.92 125.866 115.284 125.767V126.759L118.537 127.75L120.506 133.698C111.878 133.05 110.032 150.597 105.737 151.543C101.482 151.109 95.8914 140.46 95.8914 131.716C95.8914 122.144 103.455 113.871 117.553 113.871C130.223 113.871 135.028 119.131 135.275 123.785Z" fill="#101030"/>
<path d="M123.417 148.793C123.417 148.793 125.775 150.778 129.766 149.93" stroke="#1E0B02" stroke-width="0.625048" stroke-miterlimit="10" stroke-linecap="round" stroke-linejoin="round"/>
<path d="M98.9117 144.657C99.6148 147.759 102.696 149.713 105.798 149.01C108.9 148.307 110.854 145.226 110.151 142.124C109.448 139.022 106.367 137.068 103.265 137.771C100.152 138.463 98.2086 141.555 98.9117 144.657Z" fill="#B28B67"/>
<path d="M102.065 141.524C102.065 141.524 106.367 140.614 107.153 145.34" stroke="#1E0B02" stroke-width="0.564043" stroke-miterlimit="10" stroke-linecap="round" stroke-linejoin="round"/>
<path d="M0 459.9H691.131" stroke="#2F3052" stroke-width="1.52617" stroke-miterlimit="10"/>
</g>
</g>
<defs>
<clipPath id="clip0">
<rect width="691" height="460.354" fill="white"/>
</clipPath>
<clipPath id="clip1">
<rect y="112.159" width="691.13" height="348.497" fill="white"/>
</clipPath>
</defs>
</svg>
