<svg width="90" height="76" viewBox="0 0 90 76" fill="none" xmlns="http://www.w3.org/2000/svg">
<path d="M6.92957 16.263C6.92957 15.0848 7.27893 13.9331 7.93347 12.9536C8.58802 11.974 9.51835 11.2105 10.6068 10.7596C11.6953 10.3087 12.893 10.1908 14.0485 10.4206C15.204 10.6505 16.2654 11.2178 17.0985 12.0509C17.9316 12.884 18.4989 13.9454 18.7288 15.1009C18.9586 16.2564 18.8407 17.4541 18.3898 18.5426C17.9389 19.631 17.1754 20.5614 16.1958 21.2159C15.2162 21.8705 14.0646 22.2198 12.8864 22.2198C11.3066 22.2198 9.79141 21.5922 8.67428 20.4751C7.55716 19.358 6.92957 17.8428 6.92957 16.263V16.263Z" stroke="#AB8FE2" stroke-width="2.61494" stroke-linecap="round" stroke-linejoin="round"/>
<path d="M24.5804 16.2627H66.4561" stroke="#AB8FE2" stroke-width="2.61494" stroke-linecap="round" stroke-linejoin="round"/>
<path d="M12.4628 31.1941H74.4683" stroke="#AB8FE2" stroke-width="2.61494" stroke-linecap="round" stroke-linejoin="round"/>
<path d="M8.82279 1.66089C6.77273 1.66089 4.80663 2.47527 3.35702 3.92489C1.9074 5.3745 1.09302 7.3406 1.09302 9.39066V48.4893C1.09302 50.5393 1.9074 52.5054 3.35702 53.9551C4.80663 55.4047 6.77273 56.2191 8.82279 56.2191H62.9521L77.3134 74.3563L77.2245 56.1877H80.6082C82.6583 56.1877 84.6244 55.3733 86.074 53.9237C87.5236 52.4741 88.338 50.508 88.338 48.4579V9.37497C88.3338 7.32763 87.5176 5.36556 86.0684 3.91934C84.6193 2.47312 82.6555 1.66088 80.6082 1.66089H8.82279Z" stroke="#AB8FE2" stroke-width="2.61494" stroke-linecap="round" stroke-linejoin="round"/>
</svg>
