<svg width="80" height="86" viewBox="0 0 80 86" fill="none" xmlns="http://www.w3.org/2000/svg">
<g clip-path="url(#clip0)">
<path opacity="0.57" d="M80 69.5308L36.8775 85.2283L6.55976 1.94836L80 69.5308Z" fill="#FADB93"/>
<path d="M73.6944 67.8245L30.5719 83.5341L0.254158 0.25415L73.6944 67.8245Z" stroke="black" stroke-width="0.496218" stroke-linecap="round" stroke-linejoin="round"/>
<path d="M50.9894 62.2691L35.4856 67.9091L24.593 37.9786L50.9894 62.2691Z" stroke="black" stroke-width="0.496218" stroke-linecap="round" stroke-linejoin="round"/>
<path d="M6.71709 18.0089L10.8079 16.5203" stroke="black" stroke-width="0.496218" stroke-linecap="round" stroke-linejoin="round"/>
<path d="M8.14523 21.9303L12.236 20.4296" stroke="black" stroke-width="0.496218" stroke-linecap="round" stroke-linejoin="round"/>
<path d="M9.56127 25.8395L13.6641 24.3508" stroke="black" stroke-width="0.496218" stroke-linecap="round" stroke-linejoin="round"/>
<path d="M10.9894 29.7608L15.0923 28.26" stroke="black" stroke-width="0.496218" stroke-linecap="round" stroke-linejoin="round"/>
<path d="M12.4175 33.67L16.5204 32.1814" stroke="black" stroke-width="0.496218" stroke-linecap="round" stroke-linejoin="round"/>
<path d="M13.8457 37.5916L17.9365 36.0908" stroke="black" stroke-width="0.496218" stroke-linecap="round" stroke-linejoin="round"/>
<path d="M15.2738 41.5009L19.3646 40.0122" stroke="black" stroke-width="0.496218" stroke-linecap="round" stroke-linejoin="round"/>
<path d="M16.6899 45.4221L20.7927 43.9335" stroke="black" stroke-width="0.496218" stroke-linecap="round" stroke-linejoin="round"/>
<path d="M18.118 49.3314L22.2209 47.8428" stroke="black" stroke-width="0.496218" stroke-linecap="round" stroke-linejoin="round"/>
<path d="M19.5461 53.2527L23.6369 51.764" stroke="black" stroke-width="0.496218" stroke-linecap="round" stroke-linejoin="round"/>
<path d="M20.9743 57.1619L25.0651 55.6732" stroke="black" stroke-width="0.496218" stroke-linecap="round" stroke-linejoin="round"/>
<path d="M22.3903 61.0833L26.4932 59.5946" stroke="black" stroke-width="0.496218" stroke-linecap="round" stroke-linejoin="round"/>
<path d="M23.8185 64.9924L27.9213 63.5038" stroke="black" stroke-width="0.496218" stroke-linecap="round" stroke-linejoin="round"/>
<path d="M25.2466 68.9137L29.3495 67.425" stroke="black" stroke-width="0.496218" stroke-linecap="round" stroke-linejoin="round"/>
<path d="M26.6747 72.835L30.7655 71.3342" stroke="black" stroke-width="0.496218" stroke-linecap="round" stroke-linejoin="round"/>
</g>
<defs>
<clipPath id="clip0">
<rect width="80" height="85.2285" fill="white"/>
</clipPath>
</defs>
</svg>
