<svg width="40" height="40" viewBox="0 0 40 40" fill="none" xmlns="http://www.w3.org/2000/svg">
<path d="M30.3594 9.75781C27.6367 6.96875 23.918 5.375 19.9336 5.375C11.832 5.375 5.19141 12.0156 5.19141 20.1172C5.19141 22.7734 5.92188 25.2969 7.18359 27.4883L5.125 35.125L12.8945 33.1328C15.0859 34.2617 17.4766 34.9258 19.9336 34.9258C28.1016 34.9258 34.875 28.2852 34.875 20.1836C34.875 16.1992 33.1484 12.5469 30.3594 9.75781ZM19.9336 32.4023C17.7422 32.4023 15.6172 31.8047 13.6914 30.6758L13.293 30.4102L8.64453 31.6719L9.90625 27.1562L9.57422 26.6914C8.37891 24.6992 7.71484 22.4414 7.71484 20.1172C7.71484 13.4102 13.2266 7.89844 20 7.89844C23.2539 7.89844 26.3086 9.16016 28.6328 11.4844C30.957 13.8086 32.3516 16.8633 32.3516 20.1836C32.3516 26.8906 26.707 32.4023 19.9336 32.4023ZM26.707 23.2383C26.3086 23.0391 24.5156 22.1758 24.1836 22.043C23.8516 21.9102 23.5859 21.8438 23.3203 22.2422C23.1211 22.5742 22.3906 23.4375 22.1914 23.7031C21.9258 23.9023 21.7266 23.9688 21.3945 23.7695C19.2031 22.707 17.8086 21.8438 16.3477 19.3867C15.9492 18.7227 16.7461 18.7891 17.4102 17.3945C17.543 17.1289 17.4766 16.9297 17.4102 16.7305C17.3438 16.5312 16.5469 14.7383 16.2812 14.0078C15.9492 13.2773 15.6836 13.3438 15.418 13.3438C15.2188 13.3438 14.9531 13.3438 14.7539 13.3438C14.4883 13.3438 14.0898 13.4102 13.7578 13.8086C13.4258 14.207 12.4961 15.0703 12.4961 16.8633C12.4961 18.7227 13.7578 20.4492 13.957 20.7148C14.1562 20.9141 16.5469 24.6328 20.2656 26.2266C22.5898 27.2891 23.5195 27.3555 24.7148 27.1562C25.3789 27.0898 26.8398 26.293 27.1719 25.4297C27.5039 24.5664 27.5039 23.8359 27.3711 23.7031C27.3047 23.5039 27.0391 23.4375 26.707 23.2383Z" fill="#73E5E2"/>
</svg>
